<?xml version="1.0" encoding="utf-8" standalone="no"?>
<!DOCTYPE svg PUBLIC "-//W3C//DTD SVG 1.1//EN"
  "http://www.w3.org/Graphics/SVG/1.1/DTD/svg11.dtd">
<!-- Created with matplotlib (http://matplotlib.org/) -->
<svg height="288pt" version="1.1" viewBox="0 0 432 288" width="432pt" xmlns="http://www.w3.org/2000/svg" xmlns:xlink="http://www.w3.org/1999/xlink">
 <defs>
  <style type="text/css">
*{stroke-linecap:butt;stroke-linejoin:round;}
  </style>
 </defs>
 <g id="figure_1">
  <g id="patch_1">
   <path d="M 0 288 
L 432 288 
L 432 0 
L 0 0 
z
" style="fill:#ffffff;"/>
  </g>
  <g id="axes_1">
   <g id="patch_2">
    <path d="M 54 252 
L 388.8 252 
L 388.8 34.56 
L 54 34.56 
z
" style="fill:#ffffff;"/>
   </g>
   <g id="matplotlib.axis_1">
    <g id="xtick_1">
     <g id="line2d_1">
      <path clip-path="url(#p7f4d81a410)" d="M 125.409763 252 
L 125.409763 34.56 
" style="fill:none;opacity:0.4;stroke:#b0b0b0;stroke-dasharray:2.96,1.28;stroke-dashoffset:0;stroke-width:0.8;"/>
     </g>
     <g id="line2d_2">
      <defs>
       <path d="M 0 0 
L 0 -3.5 
" id="m67121c1e31" style="stroke:#000000;stroke-width:0.8;"/>
      </defs>
      <g>
       <use style="stroke:#000000;stroke-width:0.8;" x="125.409763" xlink:href="#m67121c1e31" y="252"/>
      </g>
     </g>
     <g id="line2d_3">
      <defs>
       <path d="M 0 0 
L 0 3.5 
" id="m5d7637d726" style="stroke:#000000;stroke-width:0.8;"/>
      </defs>
      <g>
       <use style="stroke:#000000;stroke-width:0.8;" x="125.409763" xlink:href="#m5d7637d726" y="34.56"/>
      </g>
     </g>
     <g id="text_1">
      <text style="font-family:DejaVu Sans;font-size:10px;font-style:normal;font-weight:normal;text-anchor:middle;" transform="rotate(-0, 125.409763, 263.098437)" x="125.409763" y="263.098437">0.2</text>
     </g>
    </g>
    <g id="xtick_2">
     <g id="line2d_4">
      <path clip-path="url(#p7f4d81a410)" d="M 198.347849 252 
L 198.347849 34.56 
" style="fill:none;opacity:0.4;stroke:#b0b0b0;stroke-dasharray:2.96,1.28;stroke-dashoffset:0;stroke-width:0.8;"/>
     </g>
     <g id="line2d_5">
      <g>
       <use style="stroke:#000000;stroke-width:0.8;" x="198.347849" xlink:href="#m67121c1e31" y="252"/>
      </g>
     </g>
     <g id="line2d_6">
      <g>
       <use style="stroke:#000000;stroke-width:0.8;" x="198.347849" xlink:href="#m5d7637d726" y="34.56"/>
      </g>
     </g>
     <g id="text_2">
      <text style="font-family:DejaVu Sans;font-size:10px;font-style:normal;font-weight:normal;text-anchor:middle;" transform="rotate(-0, 198.347849, 263.098437)" x="198.347849" y="263.098437">0.4</text>
     </g>
    </g>
    <g id="xtick_3">
     <g id="line2d_7">
      <path clip-path="url(#p7f4d81a410)" d="M 271.285934 252 
L 271.285934 34.56 
" style="fill:none;opacity:0.4;stroke:#b0b0b0;stroke-dasharray:2.96,1.28;stroke-dashoffset:0;stroke-width:0.8;"/>
     </g>
     <g id="line2d_8">
      <g>
       <use style="stroke:#000000;stroke-width:0.8;" x="271.285934" xlink:href="#m67121c1e31" y="252"/>
      </g>
     </g>
     <g id="line2d_9">
      <g>
       <use style="stroke:#000000;stroke-width:0.8;" x="271.285934" xlink:href="#m5d7637d726" y="34.56"/>
      </g>
     </g>
     <g id="text_3">
      <text style="font-family:DejaVu Sans;font-size:10px;font-style:normal;font-weight:normal;text-anchor:middle;" transform="rotate(-0, 271.285934, 263.098437)" x="271.285934" y="263.098437">0.6</text>
     </g>
    </g>
    <g id="xtick_4">
     <g id="line2d_10">
      <path clip-path="url(#p7f4d81a410)" d="M 344.22402 252 
L 344.22402 34.56 
" style="fill:none;opacity:0.4;stroke:#b0b0b0;stroke-dasharray:2.96,1.28;stroke-dashoffset:0;stroke-width:0.8;"/>
     </g>
     <g id="line2d_11">
      <g>
       <use style="stroke:#000000;stroke-width:0.8;" x="344.22402" xlink:href="#m67121c1e31" y="252"/>
      </g>
     </g>
     <g id="line2d_12">
      <g>
       <use style="stroke:#000000;stroke-width:0.8;" x="344.22402" xlink:href="#m5d7637d726" y="34.56"/>
      </g>
     </g>
     <g id="text_4">
      <text style="font-family:DejaVu Sans;font-size:10px;font-style:normal;font-weight:normal;text-anchor:middle;" transform="rotate(-0, 344.22402, 263.098437)" x="344.22402" y="263.098437">0.8</text>
     </g>
    </g>
    <g id="text_5">
     <text style="font-family:DejaVu Sans;font-size:10px;font-style:normal;font-weight:normal;text-anchor:middle;" transform="rotate(-0, 221.4, 276.776563)" x="221.4" y="276.776563">f1-score</text>
    </g>
   </g>
   <g id="matplotlib.axis_2">
    <g id="ytick_1">
     <g id="line2d_13">
      <path clip-path="url(#p7f4d81a410)" d="M 54 242.529042 
L 388.8 242.529042 
" style="fill:none;opacity:0.4;stroke:#b0b0b0;stroke-dasharray:2.96,1.28;stroke-dashoffset:0;stroke-width:0.8;"/>
     </g>
     <g id="line2d_14">
      <defs>
       <path d="M 0 0 
L 3.5 0 
" id="m1875744996" style="stroke:#000000;stroke-width:0.8;"/>
      </defs>
      <g>
       <use style="stroke:#000000;stroke-width:0.8;" x="54" xlink:href="#m1875744996" y="242.529042"/>
      </g>
     </g>
     <g id="text_6">
      <text style="font-family:DejaVu Sans;font-size:10px;font-style:normal;font-weight:normal;text-anchor:end;" transform="rotate(-0, 50.5, 246.32826)" x="50.5" y="246.32826">0.0</text>
     </g>
    </g>
    <g id="ytick_2">
     <g id="line2d_15">
      <path clip-path="url(#p7f4d81a410)" d="M 54 202.911961 
L 388.8 202.911961 
" style="fill:none;opacity:0.4;stroke:#b0b0b0;stroke-dasharray:2.96,1.28;stroke-dashoffset:0;stroke-width:0.8;"/>
     </g>
     <g id="line2d_16">
      <g>
       <use style="stroke:#000000;stroke-width:0.8;" x="54" xlink:href="#m1875744996" y="202.911961"/>
      </g>
     </g>
     <g id="text_7">
      <text style="font-family:DejaVu Sans;font-size:10px;font-style:normal;font-weight:normal;text-anchor:end;" transform="rotate(-0, 50.5, 206.711179)" x="50.5" y="206.711179">0.2</text>
     </g>
    </g>
    <g id="ytick_3">
     <g id="line2d_17">
      <path clip-path="url(#p7f4d81a410)" d="M 54 163.294879 
L 388.8 163.294879 
" style="fill:none;opacity:0.4;stroke:#b0b0b0;stroke-dasharray:2.96,1.28;stroke-dashoffset:0;stroke-width:0.8;"/>
     </g>
     <g id="line2d_18">
      <g>
       <use style="stroke:#000000;stroke-width:0.8;" x="54" xlink:href="#m1875744996" y="163.294879"/>
      </g>
     </g>
     <g id="text_8">
      <text style="font-family:DejaVu Sans;font-size:10px;font-style:normal;font-weight:normal;text-anchor:end;" transform="rotate(-0, 50.5, 167.094098)" x="50.5" y="167.094098">0.4</text>
     </g>
    </g>
    <g id="ytick_4">
     <g id="line2d_19">
      <path clip-path="url(#p7f4d81a410)" d="M 54 123.677798 
L 388.8 123.677798 
" style="fill:none;opacity:0.4;stroke:#b0b0b0;stroke-dasharray:2.96,1.28;stroke-dashoffset:0;stroke-width:0.8;"/>
     </g>
     <g id="line2d_20">
      <g>
       <use style="stroke:#000000;stroke-width:0.8;" x="54" xlink:href="#m1875744996" y="123.677798"/>
      </g>
     </g>
     <g id="text_9">
      <text style="font-family:DejaVu Sans;font-size:10px;font-style:normal;font-weight:normal;text-anchor:end;" transform="rotate(-0, 50.5, 127.477017)" x="50.5" y="127.477017">0.6</text>
     </g>
    </g>
    <g id="ytick_5">
     <g id="line2d_21">
      <path clip-path="url(#p7f4d81a410)" d="M 54 84.060717 
L 388.8 84.060717 
" style="fill:none;opacity:0.4;stroke:#b0b0b0;stroke-dasharray:2.96,1.28;stroke-dashoffset:0;stroke-width:0.8;"/>
     </g>
     <g id="line2d_22">
      <g>
       <use style="stroke:#000000;stroke-width:0.8;" x="54" xlink:href="#m1875744996" y="84.060717"/>
      </g>
     </g>
     <g id="text_10">
      <text style="font-family:DejaVu Sans;font-size:10px;font-style:normal;font-weight:normal;text-anchor:end;" transform="rotate(-0, 50.5, 87.859936)" x="50.5" y="87.859936">0.8</text>
     </g>
    </g>
    <g id="ytick_6">
     <g id="line2d_23">
      <path clip-path="url(#p7f4d81a410)" d="M 54 44.443636 
L 388.8 44.443636 
" style="fill:none;opacity:0.4;stroke:#b0b0b0;stroke-dasharray:2.96,1.28;stroke-dashoffset:0;stroke-width:0.8;"/>
     </g>
     <g id="line2d_24">
      <g>
       <use style="stroke:#000000;stroke-width:0.8;" x="54" xlink:href="#m1875744996" y="44.443636"/>
      </g>
     </g>
     <g id="text_11">
      <text style="font-family:DejaVu Sans;font-size:10px;font-style:normal;font-weight:normal;text-anchor:end;" transform="rotate(-0, 50.5, 48.242855)" x="50.5" y="48.242855">1.0</text>
     </g>
    </g>
    <g id="text_12">
     <text style="font-family:DejaVu Sans;font-size:10px;font-style:normal;font-weight:normal;text-anchor:middle;" transform="rotate(-90, 28.517187, 143.28)" x="28.517187" y="143.28">cumulative probability</text>
    </g>
   </g>
   <g id="line2d_25">
    <path clip-path="url(#p7f4d81a410)" d="M 91.396852 242.116364 
L 97.051861 242.116364 
L 98.182863 241.291008 
L 101.010368 241.291008 
L 102.14137 240.465652 
L 102.706871 239.640296 
L 104.968874 239.640296 
L 105.534375 238.402262 
L 106.099876 237.989584 
L 107.230878 237.989584 
L 108.36188 237.164229 
L 108.927381 236.338873 
L 109.492882 236.338873 
L 110.058383 235.926195 
L 110.623884 235.100839 
L 111.189385 233.862805 
L 111.754886 232.212093 
L 112.320386 231.799415 
L 112.885887 230.561382 
L 113.451388 228.91067 
L 114.016889 228.91067 
L 114.58239 228.085314 
L 115.147891 227.672636 
L 118.540897 215.292298 
L 119.106398 214.054265 
L 119.671899 212.403553 
L 120.2374 211.578197 
L 120.8029 211.165519 
L 123.064904 202.911961 
L 123.630405 202.086605 
L 124.195906 200.435893 
L 124.761407 200.435893 
L 125.326908 199.197859 
L 125.892409 197.13447 
L 126.45791 193.420368 
L 127.023411 192.182334 
L 127.588912 190.531623 
L 128.154413 188.055555 
L 128.719914 186.404843 
L 129.285415 185.992165 
L 130.416416 183.516098 
L 130.981917 181.04003 
L 131.547418 180.214675 
L 132.67842 179.389319 
L 133.809422 179.389319 
L 134.940424 177.738607 
L 135.505925 177.325929 
L 136.071426 176.500573 
L 137.202428 174.024506 
L 137.767929 174.024506 
L 138.333429 173.19915 
L 138.89893 172.786472 
L 139.464431 171.548438 
L 140.029932 169.897726 
L 140.595433 169.485048 
L 141.160934 168.659693 
L 142.291936 166.183625 
L 142.857437 166.183625 
L 143.422938 165.358269 
L 143.988439 164.945591 
L 144.55394 163.707557 
L 145.119441 162.882202 
L 145.684942 162.469524 
L 146.815943 162.469524 
L 147.381444 162.056846 
L 147.946945 162.056846 
L 149.077947 161.23149 
L 149.643448 161.23149 
L 150.208949 160.406134 
L 150.77445 159.993456 
L 152.470953 157.517388 
L 153.036454 157.104711 
L 154.167456 155.453999 
L 154.732957 155.041321 
L 155.863958 155.041321 
L 156.429459 154.215965 
L 157.560461 154.215965 
L 158.125962 153.803287 
L 158.691463 152.977931 
L 159.256964 151.739898 
L 160.953467 151.739898 
L 161.518968 151.32722 
L 162.084469 151.32722 
L 162.64997 150.501864 
L 164.911973 148.851152 
L 166.042975 148.851152 
L 167.739478 147.613118 
L 168.304979 146.787762 
L 168.87048 146.375084 
L 169.435981 145.137051 
L 170.001482 145.137051 
L 171.132484 144.311695 
L 171.697985 144.311695 
L 172.263486 143.899017 
L 172.828986 143.899017 
L 173.959988 143.073661 
L 174.525489 143.073661 
L 175.09099 142.248305 
L 175.656491 141.835627 
L 176.221992 141.835627 
L 176.787493 141.422949 
L 177.352994 138.946882 
L 177.918495 138.946882 
L 178.483996 137.708848 
L 179.049497 137.708848 
L 179.614998 136.470814 
L 180.180499 135.645458 
L 185.270007 131.931357 
L 186.401009 130.280645 
L 186.96651 129.867967 
L 187.532011 129.867967 
L 188.663013 129.042612 
L 189.228514 127.804578 
L 190.359515 127.804578 
L 190.925016 127.3919 
L 191.490517 127.3919 
L 192.056018 126.566544 
L 193.18702 126.566544 
L 193.752521 125.741188 
L 194.318022 125.741188 
L 194.883523 125.32851 
L 196.014525 125.32851 
L 198.276529 122.027087 
L 199.40753 121.201731 
L 199.973031 121.201731 
L 201.104033 120.376375 
L 201.669534 119.551019 
L 203.931538 117.900307 
L 204.497039 117.074952 
L 205.06254 116.662274 
L 206.193542 116.662274 
L 207.324543 115.836918 
L 207.890044 115.836918 
L 208.455545 115.42424 
L 209.021046 114.598884 
L 209.586547 114.186206 
L 210.152048 114.186206 
L 210.717549 113.36085 
L 211.28305 112.122816 
L 212.414052 108.821393 
L 212.979553 108.821393 
L 213.545054 108.408715 
L 214.110555 108.408715 
L 216.372558 106.758003 
L 216.938059 105.932648 
L 217.50356 105.51997 
L 218.634562 103.869258 
L 220.331065 103.869258 
L 220.896566 103.043902 
L 222.593069 103.043902 
L 223.15857 102.631224 
L 224.289571 102.631224 
L 225.420573 101.805868 
L 226.551575 101.805868 
L 227.117076 101.39319 
L 227.682577 101.39319 
L 228.248078 100.567835 
L 229.37908 100.567835 
L 229.944581 100.155157 
L 230.510082 99.329801 
L 231.075583 98.917123 
L 231.641084 98.917123 
L 232.206585 98.504445 
L 232.772086 97.679089 
L 233.337586 97.266411 
L 233.903087 96.441055 
L 235.034089 96.441055 
L 236.165091 95.615699 
L 237.296093 95.615699 
L 237.861594 95.203021 
L 238.427095 94.377666 
L 238.992596 93.964988 
L 239.558097 93.964988 
L 240.123598 93.139632 
L 240.689099 91.901598 
L 242.951102 91.901598 
L 244.082104 91.076242 
L 246.344108 91.076242 
L 246.909609 90.663564 
L 247.47511 89.838208 
L 248.040611 89.838208 
L 248.606112 89.42553 
L 249.171613 89.42553 
L 249.737114 88.600175 
L 250.302614 88.187497 
L 251.433616 88.187497 
L 251.999117 87.774819 
L 253.69562 87.774819 
L 254.261121 86.949463 
L 254.826622 85.711429 
L 255.392123 85.711429 
L 255.957624 85.298751 
L 257.654127 85.298751 
L 260.481631 83.235362 
L 261.612633 83.235362 
L 262.178134 82.822684 
L 262.743635 81.171972 
L 263.309136 80.759294 
L 265.005639 80.759294 
L 265.57114 80.346616 
L 266.136641 80.346616 
L 266.702142 79.933938 
L 267.267643 79.933938 
L 268.398644 79.108582 
L 268.964145 78.283226 
L 270.660648 78.283226 
L 271.226149 77.457871 
L 271.79165 77.457871 
L 272.357151 77.045193 
L 272.922652 77.045193 
L 273.488153 76.219837 
L 274.053654 75.807159 
L 274.619155 75.807159 
L 275.750157 74.981803 
L 276.315657 74.981803 
L 276.881158 74.569125 
L 277.446659 74.569125 
L 278.01216 73.743769 
L 278.577661 73.331091 
L 281.405166 73.331091 
L 281.970667 72.918413 
L 284.232671 72.918413 
L 285.363672 72.093058 
L 285.929173 70.855024 
L 286.494674 70.029668 
L 287.060175 69.61699 
L 287.625676 69.61699 
L 288.756678 68.791634 
L 289.322179 68.791634 
L 289.88768 68.378956 
L 290.453181 68.378956 
L 291.018682 67.966278 
L 291.584183 67.140922 
L 292.715185 67.140922 
L 293.280685 66.315567 
L 293.846186 65.902889 
L 295.542689 65.902889 
L 296.10819 65.490211 
L 296.673691 64.664855 
L 301.7632 64.664855 
L 302.3287 63.839499 
L 302.894201 63.426821 
L 304.590704 63.426821 
L 305.721706 62.601465 
L 306.287207 61.776109 
L 307.418209 61.776109 
L 307.98371 61.363431 
L 309.680213 61.363431 
L 310.811214 60.538076 
L 311.376715 60.538076 
L 311.942216 60.125398 
L 313.638719 60.125398 
L 314.20422 59.71272 
L 314.769721 59.71272 
L 315.900723 58.887364 
L 319.293728 58.887364 
L 319.859229 58.474686 
L 320.42473 58.474686 
L 320.990231 57.64933 
L 321.555732 57.236652 
L 324.948738 57.236652 
L 325.514239 56.411296 
L 326.07974 55.998618 
L 326.645241 55.173262 
L 328.341743 55.173262 
L 328.907244 54.347907 
L 330.603747 54.347907 
L 331.169248 53.935229 
L 334.562254 53.935229 
L 335.693256 53.109873 
L 336.258757 53.109873 
L 336.824257 52.697195 
L 337.955259 52.697195 
L 338.52076 52.284517 
L 339.651762 52.284517 
L 340.217263 51.871839 
L 344.17577 51.871839 
L 344.741271 51.459161 
L 346.437773 51.459161 
L 347.003274 50.633805 
L 347.568775 50.633805 
L 348.134276 50.221127 
L 349.265278 50.221127 
L 350.39628 49.395771 
L 350.961781 49.395771 
L 352.092783 48.570416 
L 356.051289 48.570416 
L 356.61679 48.157738 
L 361.140798 48.157738 
L 361.706299 47.74506 
L 362.8373 47.74506 
L 363.402801 46.919704 
L 367.361308 46.919704 
L 367.926809 46.507026 
L 368.49231 45.68167 
L 369.623312 45.68167 
L 370.188813 45.268992 
L 370.754314 45.268992 
L 371.319814 44.856314 
L 373.016317 44.856314 
L 373.581818 44.443636 
L 373.581818 44.443636 
" style="fill:none;stroke:#440154;stroke-linecap:square;stroke-width:4;"/>
   </g>
   <g id="line2d_26">
    <path clip-path="url(#p7f4d81a410)" d="M 69.218182 242.116364 
L 69.818167 241.703686 
L 71.018138 241.703686 
L 72.218109 240.87833 
L 72.818095 240.87833 
L 74.018066 240.052974 
L 75.218036 240.052974 
L 75.818022 239.227618 
L 76.418007 239.227618 
L 77.017993 238.402262 
L 78.217964 238.402262 
L 78.817949 237.989584 
L 79.417935 237.164229 
L 80.01792 236.751551 
L 80.617906 236.751551 
L 81.217891 235.926195 
L 81.817877 233.450127 
L 82.417862 232.624771 
L 83.617833 232.624771 
L 84.817804 231.799415 
L 85.417789 231.799415 
L 86.017775 230.97406 
L 86.61776 230.97406 
L 87.217746 230.561382 
L 87.817731 230.561382 
L 88.417717 228.91067 
L 89.617688 228.085314 
L 90.217673 226.84728 
L 91.417644 225.196569 
L 92.01763 223.958535 
L 93.2176 219.831756 
L 93.817586 218.181044 
L 95.017557 216.530332 
L 95.617542 216.530332 
L 97.417499 214.054265 
L 98.017484 213.641587 
L 98.61747 211.990875 
L 99.217455 211.578197 
L 100.417426 209.102129 
L 101.017411 208.276774 
L 101.617397 206.213384 
L 102.217382 204.97535 
L 102.817368 204.562672 
L 103.417353 203.737316 
L 104.017339 202.499283 
L 105.21731 201.673927 
L 106.417281 199.197859 
L 107.017266 198.372503 
L 107.617252 196.309114 
L 108.217237 194.658402 
L 108.817223 193.420368 
L 109.417208 192.595012 
L 110.017193 190.944301 
L 110.617179 190.531623 
L 111.217164 189.293589 
L 111.81715 188.468233 
L 113.017121 187.642877 
L 113.617106 186.817521 
L 114.217092 185.579488 
L 114.817077 184.754132 
L 115.417063 184.754132 
L 116.017048 183.10342 
L 116.617034 182.278064 
L 117.217019 180.214675 
L 117.817005 179.801997 
L 118.41699 179.801997 
L 119.016975 178.976641 
L 119.616961 178.563963 
L 120.216946 177.738607 
L 120.816932 177.325929 
L 121.416917 175.675217 
L 122.016903 175.262539 
L 123.816859 172.786472 
L 124.416845 172.786472 
L 125.01683 171.961116 
L 125.616816 171.961116 
L 126.216801 171.13576 
L 126.816786 169.897726 
L 127.416772 169.07237 
L 128.016757 167.421659 
L 128.616743 166.183625 
L 129.216728 165.358269 
L 129.816714 164.120235 
L 130.416699 164.120235 
L 131.016685 163.294879 
L 131.61667 162.882202 
L 132.216656 162.056846 
L 133.416627 158.755422 
L 134.616598 156.279355 
L 135.216583 155.866677 
L 135.816568 155.041321 
L 136.416554 154.628643 
L 137.016539 153.390609 
L 137.616525 153.390609 
L 139.416481 150.914542 
L 140.016467 150.914542 
L 140.616452 150.089186 
L 141.816423 150.089186 
L 143.016394 149.26383 
L 143.61638 149.26383 
L 144.216365 148.025796 
L 144.81635 147.613118 
L 146.016321 145.962407 
L 146.616307 145.549729 
L 147.816278 145.549729 
L 149.616234 144.311695 
L 150.21622 143.486339 
L 150.816205 142.248305 
L 151.416191 141.422949 
L 152.016176 141.422949 
L 152.616162 141.010271 
L 153.216147 140.184916 
L 153.816132 139.772238 
L 154.416118 137.708848 
L 155.016103 137.29617 
L 156.216074 137.29617 
L 156.81606 136.470814 
L 158.016031 136.470814 
L 159.216002 134.820102 
L 162.815914 132.344035 
L 163.4159 131.518679 
L 164.015885 131.518679 
L 164.615871 131.106001 
L 165.215856 130.280645 
L 165.815842 129.042612 
L 166.415827 128.629934 
L 167.615798 125.32851 
L 168.215784 125.32851 
L 170.01574 122.852443 
L 170.615725 120.789053 
L 171.215711 119.963697 
L 173.615653 118.312985 
L 174.215638 118.312985 
L 175.415609 116.662274 
L 176.015595 115.42424 
L 177.815551 114.186206 
L 179.015522 111.710139 
L 179.615507 111.710139 
L 180.215493 110.472105 
L 180.815478 110.472105 
L 181.415464 109.646749 
L 182.015449 109.234071 
L 182.615435 107.996037 
L 183.21542 107.583359 
L 184.415391 105.932648 
L 185.015377 104.694614 
L 185.615362 104.281936 
L 186.215348 102.631224 
L 188.015304 102.631224 
L 188.615289 102.218546 
L 189.215275 102.218546 
L 191.015231 100.980512 
L 192.215202 99.329801 
L 195.21513 97.266411 
L 195.815115 97.266411 
L 196.4151 96.441055 
L 197.615071 93.964988 
L 198.215057 93.55231 
L 198.815042 92.314276 
L 199.415028 92.314276 
L 200.015013 91.48892 
L 200.614999 91.48892 
L 201.214984 91.076242 
L 201.81497 89.838208 
L 202.414955 89.42553 
L 203.014941 89.42553 
L 203.614926 88.187497 
L 204.214912 87.362141 
L 204.814897 87.362141 
L 205.414882 86.124107 
L 206.014868 86.124107 
L 206.614853 85.298751 
L 207.214839 85.298751 
L 207.814824 84.886073 
L 208.41481 84.060717 
L 209.014795 83.648039 
L 210.214766 83.648039 
L 210.814752 83.235362 
L 211.414737 83.235362 
L 212.014723 82.822684 
L 212.614708 82.822684 
L 213.214694 82.410006 
L 213.814679 82.410006 
L 216.214621 80.759294 
L 216.814606 79.933938 
L 217.414592 79.933938 
L 218.014577 79.52126 
L 218.614563 79.52126 
L 219.214548 78.695904 
L 220.414519 78.695904 
L 221.61449 77.870548 
L 224.014432 77.870548 
L 224.614417 77.045193 
L 225.214403 76.632515 
L 227.014359 76.632515 
L 227.614345 76.219837 
L 232.414228 76.219837 
L 233.014214 75.394481 
L 233.614199 75.394481 
L 234.214185 74.981803 
L 234.81417 74.156447 
L 236.014141 74.156447 
L 237.814098 72.918413 
L 238.414083 72.918413 
L 239.614054 72.093058 
L 240.214039 70.855024 
L 241.41401 70.855024 
L 242.013996 70.442346 
L 244.413938 70.442346 
L 245.013923 69.61699 
L 245.613909 69.61699 
L 246.213894 68.791634 
L 246.81388 68.791634 
L 248.013851 67.966278 
L 248.613836 67.966278 
L 249.213821 67.5536 
L 249.813807 67.5536 
L 250.413792 67.140922 
L 252.213749 67.140922 
L 252.813734 66.728244 
L 257.013632 66.728244 
L 258.213603 65.902889 
L 258.813589 65.902889 
L 260.01356 65.077533 
L 260.613545 65.077533 
L 261.813516 64.252177 
L 263.613473 64.252177 
L 264.213458 63.839499 
L 265.413429 63.839499 
L 266.6134 63.014143 
L 268.413356 63.014143 
L 269.013342 62.188787 
L 269.613327 62.188787 
L 270.213313 61.776109 
L 270.813298 61.776109 
L 271.413284 61.363431 
L 272.613255 61.363431 
L 273.813226 60.538076 
L 278.613109 60.538076 
L 279.213095 60.125398 
L 281.013051 60.125398 
L 281.613037 59.71272 
L 287.012906 59.71272 
L 287.612891 58.887364 
L 288.812862 58.887364 
L 290.612819 57.64933 
L 296.012688 57.64933 
L 297.212659 56.823974 
L 297.812644 56.823974 
L 298.41263 56.411296 
L 299.012615 55.58594 
L 300.812571 55.58594 
L 301.412557 54.760585 
L 303.212513 53.522551 
L 304.412484 53.522551 
L 305.01247 52.697195 
L 307.412412 52.697195 
L 308.012397 52.284517 
L 308.612383 52.284517 
L 309.212368 51.871839 
L 311.61231 51.871839 
L 312.212295 50.633805 
L 312.812281 50.633805 
L 313.412266 50.221127 
L 315.812208 50.221127 
L 317.012179 49.395771 
L 323.012034 49.395771 
L 323.612019 48.983094 
L 329.611874 48.983094 
L 330.211859 48.570416 
L 333.211787 48.570416 
L 333.811772 48.157738 
L 334.411758 48.157738 
L 335.011743 47.74506 
L 335.611728 47.74506 
L 336.211714 46.919704 
L 344.61151 46.919704 
L 345.811481 46.094348 
L 348.211423 46.094348 
L 348.811409 45.68167 
L 357.811191 45.68167 
L 358.411176 45.268992 
L 363.21106 45.268992 
L 363.811045 44.856314 
L 368.010944 44.856314 
L 368.610929 44.443636 
L 368.610929 44.443636 
" style="fill:none;stroke:#3d4e8a;stroke-linecap:square;stroke-width:4;"/>
   </g>
   <g id="line2d_27">
    <path clip-path="url(#p7f4d81a410)" d="M 79.23103 242.116364 
L 86.291636 242.116364 
L 86.88002 241.703686 
L 88.056788 241.703686 
L 88.645171 241.291008 
L 90.410323 241.291008 
L 90.998707 240.87833 
L 93.940626 240.87833 
L 94.52901 240.465652 
L 96.294161 240.465652 
L 96.882545 240.052974 
L 97.470929 240.052974 
L 99.824464 238.402262 
L 100.412848 237.576906 
L 101.001231 236.338873 
L 101.589615 235.513517 
L 102.177999 235.513517 
L 103.354767 234.688161 
L 104.531534 234.688161 
L 105.119918 234.275483 
L 105.708302 234.275483 
L 106.296686 233.862805 
L 106.88507 233.037449 
L 107.473453 232.624771 
L 108.650221 230.97406 
L 109.238605 230.97406 
L 109.826989 230.148704 
L 110.415372 229.736026 
L 111.003756 229.736026 
L 111.59214 228.91067 
L 112.180524 228.91067 
L 112.768908 228.085314 
L 113.357292 227.672636 
L 114.534059 226.021924 
L 115.122443 226.021924 
L 115.710827 224.783891 
L 117.475978 222.307823 
L 119.24113 222.307823 
L 120.417897 220.657111 
L 122.771433 220.657111 
L 123.359816 219.831756 
L 123.9482 219.831756 
L 125.124968 219.0064 
L 125.713352 218.181044 
L 126.301735 218.181044 
L 126.890119 217.355688 
L 127.478503 216.94301 
L 128.066887 215.704976 
L 128.655271 215.704976 
L 129.243655 215.292298 
L 129.832038 214.054265 
L 130.420422 213.228909 
L 131.008806 212.816231 
L 131.59719 211.578197 
L 132.773957 211.578197 
L 133.362341 211.165519 
L 133.950725 210.340163 
L 134.539109 209.927485 
L 135.127493 209.927485 
L 135.715877 209.102129 
L 136.30426 208.689452 
L 136.892644 207.451418 
L 138.069412 207.451418 
L 138.657796 207.03874 
L 139.246179 206.213384 
L 139.834563 205.800706 
L 140.422947 205.800706 
L 141.011331 204.97535 
L 142.188098 204.149994 
L 142.776482 203.324638 
L 143.364866 202.911961 
L 145.130018 200.435893 
L 145.718401 200.023215 
L 146.306785 199.197859 
L 149.248704 197.13447 
L 149.837088 197.13447 
L 150.425472 196.309114 
L 151.013856 195.07108 
L 151.602239 194.658402 
L 152.190623 193.833046 
L 152.779007 193.420368 
L 153.367391 192.595012 
L 154.544159 192.595012 
L 155.132542 192.182334 
L 155.720926 192.182334 
L 156.30931 191.769656 
L 158.074461 191.769656 
L 158.662845 191.356979 
L 159.839613 189.706267 
L 161.016381 188.880911 
L 161.604764 188.880911 
L 163.9583 187.230199 
L 164.546683 186.404843 
L 165.135067 185.992165 
L 166.311835 185.992165 
L 166.900219 185.16681 
L 167.488602 185.16681 
L 168.076986 184.341454 
L 168.66537 183.928776 
L 169.253754 183.10342 
L 169.842138 182.690742 
L 170.430522 181.865386 
L 171.018905 180.627352 
L 171.607289 180.214675 
L 172.195673 178.976641 
L 173.960824 176.500573 
L 175.137592 174.024506 
L 176.31436 174.024506 
L 176.902743 173.19915 
L 177.491127 171.961116 
L 178.079511 171.961116 
L 178.667895 169.897726 
L 179.256279 169.07237 
L 179.844663 167.834337 
L 181.02143 166.183625 
L 181.609814 165.770947 
L 183.374965 165.770947 
L 183.963349 163.707557 
L 184.551733 162.882202 
L 185.140117 162.469524 
L 185.728501 161.644168 
L 186.316885 161.644168 
L 186.905268 160.406134 
L 189.258804 158.755422 
L 189.847187 157.930066 
L 191.612339 156.692033 
L 192.200723 155.453999 
L 192.789106 153.390609 
L 193.37749 152.152575 
L 193.965874 151.739898 
L 195.142642 150.089186 
L 195.731026 150.089186 
L 196.319409 149.26383 
L 196.907793 148.851152 
L 197.496177 148.851152 
L 198.672945 148.025796 
L 199.261328 146.787762 
L 199.849712 145.962407 
L 200.438096 145.549729 
L 201.02648 143.899017 
L 201.614864 143.486339 
L 202.791631 141.010271 
L 203.380015 140.184916 
L 203.968399 140.184916 
L 205.145167 138.534204 
L 205.73355 137.29617 
L 206.910318 136.470814 
L 208.087086 136.470814 
L 209.263853 134.820102 
L 209.852237 134.407425 
L 211.029005 134.407425 
L 211.617389 133.582069 
L 212.205772 133.582069 
L 212.794156 133.169391 
L 213.38254 132.344035 
L 213.970924 132.344035 
L 215.147691 130.693323 
L 215.736075 130.693323 
L 216.324459 130.280645 
L 218.08961 130.280645 
L 218.677994 129.867967 
L 219.266378 129.867967 
L 220.443146 128.217256 
L 221.619913 128.217256 
L 222.208297 127.3919 
L 222.796681 127.3919 
L 223.385065 126.566544 
L 224.561832 126.566544 
L 225.150216 125.741188 
L 225.7386 124.503154 
L 226.326984 124.503154 
L 228.092135 123.265121 
L 228.680519 122.439765 
L 229.857287 121.614409 
L 230.445671 120.789053 
L 231.034054 119.551019 
L 232.799206 118.312985 
L 233.975973 118.312985 
L 234.564357 117.900307 
L 235.152741 117.074952 
L 236.329509 117.074952 
L 238.09466 115.836918 
L 239.271428 115.836918 
L 239.859812 115.42424 
L 241.624963 115.42424 
L 242.213347 114.598884 
L 243.390114 114.598884 
L 244.566882 113.773528 
L 245.155266 113.773528 
L 245.74365 113.36085 
L 248.685569 113.36085 
L 249.862336 112.535494 
L 254.569407 112.535494 
L 255.157791 112.122816 
L 257.511326 112.122816 
L 258.09971 110.884783 
L 258.688094 110.884783 
L 259.276477 110.472105 
L 259.864861 110.472105 
L 260.453245 109.234071 
L 261.041629 109.234071 
L 261.630013 108.821393 
L 263.983548 108.821393 
L 264.571932 108.408715 
L 265.160316 108.408715 
L 265.748699 107.583359 
L 266.925467 106.758003 
L 267.513851 106.758003 
L 268.102235 106.345325 
L 268.690618 106.345325 
L 269.279002 105.932648 
L 271.044154 105.932648 
L 274.574457 103.45658 
L 275.16284 102.631224 
L 276.339608 101.805868 
L 276.927992 101.805868 
L 277.516376 101.39319 
L 279.281527 101.39319 
L 279.869911 100.155157 
L 281.046679 100.155157 
L 281.635062 98.917123 
L 282.223446 97.266411 
L 283.988598 96.028377 
L 284.576981 94.377666 
L 285.165365 93.139632 
L 285.753749 93.139632 
L 286.342133 92.726954 
L 286.930517 92.726954 
L 287.518901 92.314276 
L 288.107284 91.48892 
L 288.695668 90.250886 
L 291.049203 88.600175 
L 291.637587 87.362141 
L 292.225971 86.536785 
L 292.814355 86.536785 
L 293.402739 86.124107 
L 293.991122 85.298751 
L 294.579506 84.886073 
L 295.16789 84.886073 
L 295.756274 84.060717 
L 296.344658 84.060717 
L 296.933042 83.648039 
L 297.521425 82.822684 
L 299.286577 81.58465 
L 299.874961 80.759294 
L 301.051728 79.933938 
L 302.81688 79.933938 
L 303.993647 79.108582 
L 305.170415 76.632515 
L 305.758799 76.632515 
L 306.347183 75.807159 
L 306.935566 75.807159 
L 307.52395 74.981803 
L 308.112334 74.981803 
L 309.877485 73.743769 
L 310.465869 72.918413 
L 311.054253 72.505735 
L 311.642637 71.267702 
L 312.231021 71.267702 
L 313.996172 70.029668 
L 314.584556 70.029668 
L 315.17294 69.61699 
L 315.761324 68.791634 
L 316.349707 68.378956 
L 316.938091 68.378956 
L 317.526475 67.966278 
L 318.114859 67.966278 
L 318.703243 67.140922 
L 319.291626 67.140922 
L 319.88001 66.728244 
L 320.468394 66.728244 
L 322.821929 65.077533 
L 323.410313 65.077533 
L 323.998697 64.252177 
L 325.763848 63.014143 
L 327.529 63.014143 
L 328.117384 62.601465 
L 332.23607 62.601465 
L 333.412838 61.776109 
L 334.001222 61.776109 
L 335.177989 60.950753 
L 335.766373 60.950753 
L 336.354757 60.538076 
L 336.943141 60.538076 
L 337.531525 60.125398 
L 338.708292 60.125398 
L 339.296676 59.71272 
L 339.88506 59.71272 
L 340.473444 59.300042 
L 343.415363 59.300042 
L 344.003747 58.887364 
L 345.180514 58.887364 
L 346.357282 58.062008 
L 347.53405 58.062008 
L 348.122433 57.64933 
L 349.299201 57.64933 
L 351.064352 56.411296 
L 351.652736 56.411296 
L 352.24112 55.998618 
L 353.417888 55.998618 
L 354.006272 55.58594 
L 354.594655 54.347907 
L 355.183039 53.935229 
L 355.771423 53.935229 
L 357.536574 51.459161 
L 358.124958 51.046483 
L 358.713342 50.221127 
L 359.301726 49.808449 
L 359.89011 48.983094 
L 360.478493 48.570416 
L 361.066877 47.74506 
L 362.832029 47.74506 
L 363.420413 46.919704 
L 365.185564 46.919704 
L 365.773948 46.094348 
L 367.539099 44.856314 
L 372.24617 44.856314 
L 372.834554 44.443636 
L 372.834554 44.443636 
" style="fill:none;stroke:#23898e;stroke-linecap:square;stroke-width:4;"/>
   </g>
   <g id="patch_3">
    <path d="M 54 252 
L 54 34.56 
" style="fill:none;stroke:#000000;stroke-linecap:square;stroke-linejoin:miter;stroke-width:0.8;"/>
   </g>
   <g id="patch_4">
    <path d="M 388.8 252 
L 388.8 34.56 
" style="fill:none;stroke:#000000;stroke-linecap:square;stroke-linejoin:miter;stroke-width:0.8;"/>
   </g>
   <g id="patch_5">
    <path d="M 54 252 
L 388.8 252 
" style="fill:none;stroke:#000000;stroke-linecap:square;stroke-linejoin:miter;stroke-width:0.8;"/>
   </g>
   <g id="patch_6">
    <path d="M 54 34.56 
L 388.8 34.56 
" style="fill:none;stroke:#000000;stroke-linecap:square;stroke-linejoin:miter;stroke-width:0.8;"/>
   </g>
   <g id="legend_1">
    <g id="patch_7">
     <path d="M 61 86.594375 
L 122.154687 86.594375 
Q 124.154687 86.594375 124.154687 84.594375 
L 124.154687 41.56 
Q 124.154687 39.56 122.154687 39.56 
L 61 39.56 
Q 59 39.56 59 41.56 
L 59 84.594375 
Q 59 86.594375 61 86.594375 
z
" style="fill:#ffffff;opacity:0.8;stroke:#cccccc;stroke-linejoin:miter;"/>
    </g>
    <g id="line2d_28">
     <path d="M 63 47.658438 
L 83 47.658438 
" style="fill:none;stroke:#440154;stroke-linecap:square;stroke-width:4;"/>
    </g>
    <g id="line2d_29"/>
    <g id="text_13">
     <text style="font-family:DejaVu Sans;font-size:10px;font-style:normal;font-weight:normal;text-anchor:start;" transform="rotate(-0, 91, 51.158438)" x="91" y="51.158438">User2</text>
    </g>
    <g id="line2d_30">
     <path d="M 63 62.336563 
L 83 62.336563 
" style="fill:none;stroke:#3d4e8a;stroke-linecap:square;stroke-width:4;"/>
    </g>
    <g id="line2d_31"/>
    <g id="text_14">
     <text style="font-family:DejaVu Sans;font-size:10px;font-style:normal;font-weight:normal;text-anchor:start;" transform="rotate(-0, 91, 65.836563)" x="91" y="65.836563">User3</text>
    </g>
    <g id="line2d_32">
     <path d="M 63 77.014688 
L 83 77.014688 
" style="fill:none;stroke:#23898e;stroke-linecap:square;stroke-width:4;"/>
    </g>
    <g id="line2d_33"/>
    <g id="text_15">
     <text style="font-family:DejaVu Sans;font-size:10px;font-style:normal;font-weight:normal;text-anchor:start;" transform="rotate(-0, 91, 80.514688)" x="91" y="80.514688">User1</text>
    </g>
   </g>
  </g>
  <g id="text_16">
   <text style="font-family:DejaVu Sans;font-size:12px;font-style:normal;font-weight:normal;text-anchor:middle;" transform="rotate(-0, 216, 14.878125)" x="216" y="14.878125">Performances on data generated by each user over all experiments</text>
  </g>
 </g>
 <defs>
  <clipPath id="p7f4d81a410">
   <rect height="217.44" width="334.8" x="54" y="34.56"/>
  </clipPath>
 </defs>
</svg>
