<?xml version="1.0" encoding="utf-8" standalone="no"?>
<!DOCTYPE svg PUBLIC "-//W3C//DTD SVG 1.1//EN"
  "http://www.w3.org/Graphics/SVG/1.1/DTD/svg11.dtd">
<!-- Created with matplotlib (http://matplotlib.org/) -->
<svg height="288pt" version="1.1" viewBox="0 0 432 288" width="432pt" xmlns="http://www.w3.org/2000/svg" xmlns:xlink="http://www.w3.org/1999/xlink">
 <defs>
  <style type="text/css">
*{stroke-linecap:butt;stroke-linejoin:round;}
  </style>
 </defs>
 <g id="figure_1">
  <g id="patch_1">
   <path d="M 0 288 
L 432 288 
L 432 0 
L 0 0 
z
" style="fill:#ffffff;"/>
  </g>
  <g id="axes_1">
   <g id="patch_2">
    <path d="M 54 252 
L 388.8 252 
L 388.8 34.56 
L 54 34.56 
z
" style="fill:#ffffff;"/>
   </g>
   <g id="matplotlib.axis_1">
    <g id="xtick_1">
     <g id="line2d_1">
      <path clip-path="url(#pb42df311b9)" d="M 125.417954 252 
L 125.417954 34.56 
" style="fill:none;opacity:0.4;stroke:#b0b0b0;stroke-dasharray:2.96,1.28;stroke-dashoffset:0;stroke-width:0.8;"/>
     </g>
     <g id="line2d_2">
      <defs>
       <path d="M 0 0 
L 0 -3.5 
" id="mc7b6524796" style="stroke:#000000;stroke-width:0.8;"/>
      </defs>
      <g>
       <use style="stroke:#000000;stroke-width:0.8;" x="125.417954" xlink:href="#mc7b6524796" y="252"/>
      </g>
     </g>
     <g id="line2d_3">
      <defs>
       <path d="M 0 0 
L 0 3.5 
" id="m378561f602" style="stroke:#000000;stroke-width:0.8;"/>
      </defs>
      <g>
       <use style="stroke:#000000;stroke-width:0.8;" x="125.417954" xlink:href="#m378561f602" y="34.56"/>
      </g>
     </g>
     <g id="text_1">
      <text style="font-family:DejaVu Sans;font-size:10px;font-style:normal;font-weight:normal;text-anchor:middle;" transform="rotate(-0, 125.417954, 263.098437)" x="125.417954" y="263.098437">0.2</text>
     </g>
    </g>
    <g id="xtick_2">
     <g id="line2d_4">
      <path clip-path="url(#pb42df311b9)" d="M 198.366671 252 
L 198.366671 34.56 
" style="fill:none;opacity:0.4;stroke:#b0b0b0;stroke-dasharray:2.96,1.28;stroke-dashoffset:0;stroke-width:0.8;"/>
     </g>
     <g id="line2d_5">
      <g>
       <use style="stroke:#000000;stroke-width:0.8;" x="198.366671" xlink:href="#mc7b6524796" y="252"/>
      </g>
     </g>
     <g id="line2d_6">
      <g>
       <use style="stroke:#000000;stroke-width:0.8;" x="198.366671" xlink:href="#m378561f602" y="34.56"/>
      </g>
     </g>
     <g id="text_2">
      <text style="font-family:DejaVu Sans;font-size:10px;font-style:normal;font-weight:normal;text-anchor:middle;" transform="rotate(-0, 198.366671, 263.098437)" x="198.366671" y="263.098437">0.4</text>
     </g>
    </g>
    <g id="xtick_3">
     <g id="line2d_7">
      <path clip-path="url(#pb42df311b9)" d="M 271.315388 252 
L 271.315388 34.56 
" style="fill:none;opacity:0.4;stroke:#b0b0b0;stroke-dasharray:2.96,1.28;stroke-dashoffset:0;stroke-width:0.8;"/>
     </g>
     <g id="line2d_8">
      <g>
       <use style="stroke:#000000;stroke-width:0.8;" x="271.315388" xlink:href="#mc7b6524796" y="252"/>
      </g>
     </g>
     <g id="line2d_9">
      <g>
       <use style="stroke:#000000;stroke-width:0.8;" x="271.315388" xlink:href="#m378561f602" y="34.56"/>
      </g>
     </g>
     <g id="text_3">
      <text style="font-family:DejaVu Sans;font-size:10px;font-style:normal;font-weight:normal;text-anchor:middle;" transform="rotate(-0, 271.315388, 263.098437)" x="271.315388" y="263.098437">0.6</text>
     </g>
    </g>
    <g id="xtick_4">
     <g id="line2d_10">
      <path clip-path="url(#pb42df311b9)" d="M 344.264105 252 
L 344.264105 34.56 
" style="fill:none;opacity:0.4;stroke:#b0b0b0;stroke-dasharray:2.96,1.28;stroke-dashoffset:0;stroke-width:0.8;"/>
     </g>
     <g id="line2d_11">
      <g>
       <use style="stroke:#000000;stroke-width:0.8;" x="344.264105" xlink:href="#mc7b6524796" y="252"/>
      </g>
     </g>
     <g id="line2d_12">
      <g>
       <use style="stroke:#000000;stroke-width:0.8;" x="344.264105" xlink:href="#m378561f602" y="34.56"/>
      </g>
     </g>
     <g id="text_4">
      <text style="font-family:DejaVu Sans;font-size:10px;font-style:normal;font-weight:normal;text-anchor:middle;" transform="rotate(-0, 344.264105, 263.098437)" x="344.264105" y="263.098437">0.8</text>
     </g>
    </g>
    <g id="text_5">
     <text style="font-family:DejaVu Sans;font-size:10px;font-style:normal;font-weight:normal;text-anchor:middle;" transform="rotate(-0, 221.4, 276.776563)" x="221.4" y="276.776563">f1-score</text>
    </g>
   </g>
   <g id="matplotlib.axis_2">
    <g id="ytick_1">
     <g id="line2d_13">
      <path clip-path="url(#pb42df311b9)" d="M 54 242.588136 
L 388.8 242.588136 
" style="fill:none;opacity:0.4;stroke:#b0b0b0;stroke-dasharray:2.96,1.28;stroke-dashoffset:0;stroke-width:0.8;"/>
     </g>
     <g id="line2d_14">
      <defs>
       <path d="M 0 0 
L 3.5 0 
" id="m741fa1be2a" style="stroke:#000000;stroke-width:0.8;"/>
      </defs>
      <g>
       <use style="stroke:#000000;stroke-width:0.8;" x="54" xlink:href="#m741fa1be2a" y="242.588136"/>
      </g>
     </g>
     <g id="text_6">
      <text style="font-family:DejaVu Sans;font-size:10px;font-style:normal;font-weight:normal;text-anchor:end;" transform="rotate(-0, 50.5, 246.387355)" x="50.5" y="246.387355">0.0</text>
     </g>
    </g>
    <g id="ytick_2">
     <g id="line2d_15">
      <path clip-path="url(#pb42df311b9)" d="M 54 202.959236 
L 388.8 202.959236 
" style="fill:none;opacity:0.4;stroke:#b0b0b0;stroke-dasharray:2.96,1.28;stroke-dashoffset:0;stroke-width:0.8;"/>
     </g>
     <g id="line2d_16">
      <g>
       <use style="stroke:#000000;stroke-width:0.8;" x="54" xlink:href="#m741fa1be2a" y="202.959236"/>
      </g>
     </g>
     <g id="text_7">
      <text style="font-family:DejaVu Sans;font-size:10px;font-style:normal;font-weight:normal;text-anchor:end;" transform="rotate(-0, 50.5, 206.758455)" x="50.5" y="206.758455">0.2</text>
     </g>
    </g>
    <g id="ytick_3">
     <g id="line2d_17">
      <path clip-path="url(#pb42df311b9)" d="M 54 163.330336 
L 388.8 163.330336 
" style="fill:none;opacity:0.4;stroke:#b0b0b0;stroke-dasharray:2.96,1.28;stroke-dashoffset:0;stroke-width:0.8;"/>
     </g>
     <g id="line2d_18">
      <g>
       <use style="stroke:#000000;stroke-width:0.8;" x="54" xlink:href="#m741fa1be2a" y="163.330336"/>
      </g>
     </g>
     <g id="text_8">
      <text style="font-family:DejaVu Sans;font-size:10px;font-style:normal;font-weight:normal;text-anchor:end;" transform="rotate(-0, 50.5, 167.129555)" x="50.5" y="167.129555">0.4</text>
     </g>
    </g>
    <g id="ytick_4">
     <g id="line2d_19">
      <path clip-path="url(#pb42df311b9)" d="M 54 123.701436 
L 388.8 123.701436 
" style="fill:none;opacity:0.4;stroke:#b0b0b0;stroke-dasharray:2.96,1.28;stroke-dashoffset:0;stroke-width:0.8;"/>
     </g>
     <g id="line2d_20">
      <g>
       <use style="stroke:#000000;stroke-width:0.8;" x="54" xlink:href="#m741fa1be2a" y="123.701436"/>
      </g>
     </g>
     <g id="text_9">
      <text style="font-family:DejaVu Sans;font-size:10px;font-style:normal;font-weight:normal;text-anchor:end;" transform="rotate(-0, 50.5, 127.500655)" x="50.5" y="127.500655">0.6</text>
     </g>
    </g>
    <g id="ytick_5">
     <g id="line2d_21">
      <path clip-path="url(#pb42df311b9)" d="M 54 84.072536 
L 388.8 84.072536 
" style="fill:none;opacity:0.4;stroke:#b0b0b0;stroke-dasharray:2.96,1.28;stroke-dashoffset:0;stroke-width:0.8;"/>
     </g>
     <g id="line2d_22">
      <g>
       <use style="stroke:#000000;stroke-width:0.8;" x="54" xlink:href="#m741fa1be2a" y="84.072536"/>
      </g>
     </g>
     <g id="text_10">
      <text style="font-family:DejaVu Sans;font-size:10px;font-style:normal;font-weight:normal;text-anchor:end;" transform="rotate(-0, 50.5, 87.871755)" x="50.5" y="87.871755">0.8</text>
     </g>
    </g>
    <g id="ytick_6">
     <g id="line2d_23">
      <path clip-path="url(#pb42df311b9)" d="M 54 44.443636 
L 388.8 44.443636 
" style="fill:none;opacity:0.4;stroke:#b0b0b0;stroke-dasharray:2.96,1.28;stroke-dashoffset:0;stroke-width:0.8;"/>
     </g>
     <g id="line2d_24">
      <g>
       <use style="stroke:#000000;stroke-width:0.8;" x="54" xlink:href="#m741fa1be2a" y="44.443636"/>
      </g>
     </g>
     <g id="text_11">
      <text style="font-family:DejaVu Sans;font-size:10px;font-style:normal;font-weight:normal;text-anchor:end;" transform="rotate(-0, 50.5, 48.242855)" x="50.5" y="48.242855">1.0</text>
     </g>
    </g>
    <g id="text_12">
     <text style="font-family:DejaVu Sans;font-size:10px;font-style:normal;font-weight:normal;text-anchor:middle;" transform="rotate(-90, 28.517187, 143.28)" x="28.517187" y="143.28">cumulative probability</text>
    </g>
   </g>
   <g id="line2d_25">
    <path clip-path="url(#pb42df311b9)" d="M 77.126213 242.116364 
L 78.232065 242.116364 
L 78.784991 241.644591 
L 80.443768 241.644591 
L 80.996694 241.172818 
L 81.54962 239.757501 
L 82.102545 237.87041 
L 82.655471 237.398637 
L 84.314249 237.398637 
L 84.867174 236.926865 
L 85.4201 236.926865 
L 85.973026 236.455092 
L 88.184729 236.455092 
L 88.737655 235.511547 
L 89.843506 235.511547 
L 90.396432 234.568002 
L 91.502284 234.568002 
L 92.05521 234.096229 
L 93.713987 234.096229 
L 94.266913 232.680911 
L 94.819839 232.209139 
L 95.92569 232.209139 
L 98.137393 230.322048 
L 99.243245 228.434958 
L 99.796171 227.963185 
L 100.349096 226.547867 
L 100.902022 226.076095 
L 101.454948 224.660777 
L 102.007874 224.189004 
L 102.5608 223.245459 
L 104.772503 221.358368 
L 105.325429 220.414823 
L 106.43128 219.471278 
L 106.984206 218.05596 
L 107.537132 215.697097 
L 108.090057 214.281779 
L 108.642983 213.338234 
L 109.748835 212.394689 
L 111.407612 209.564053 
L 111.960538 208.148735 
L 112.513464 208.148735 
L 113.06639 206.733417 
L 113.619315 206.261645 
L 114.172241 204.846327 
L 114.725167 204.374554 
L 115.278093 203.431009 
L 115.831019 201.543918 
L 116.383944 201.072146 
L 116.93687 197.297965 
L 117.489796 195.882647 
L 118.042722 193.995557 
L 119.148573 193.052011 
L 119.701499 191.636693 
L 120.254425 190.693148 
L 120.807351 190.221376 
L 121.360276 189.27783 
L 121.913202 187.862512 
L 122.466128 185.503649 
L 123.57198 182.673014 
L 124.124905 182.201241 
L 125.230757 182.201241 
L 125.783683 181.729468 
L 126.336608 179.842378 
L 127.44246 177.011742 
L 127.995386 172.765789 
L 128.548312 171.350471 
L 129.101237 171.350471 
L 129.654163 170.406926 
L 130.207089 168.991608 
L 130.760015 168.991608 
L 131.312941 167.57629 
L 131.865866 167.57629 
L 132.418792 166.632745 
L 133.524644 165.689199 
L 134.07757 165.689199 
L 134.630495 163.330336 
L 135.736347 161.443246 
L 136.289273 159.556155 
L 137.395124 157.669065 
L 137.94805 157.197292 
L 138.500976 157.197292 
L 139.053902 156.72552 
L 140.159753 154.838429 
L 140.712679 153.423111 
L 141.265605 152.951339 
L 141.818531 152.007793 
L 142.371456 151.536021 
L 142.924382 150.592476 
L 143.477308 150.592476 
L 144.030234 149.177158 
L 144.583159 146.818295 
L 145.136085 146.818295 
L 147.347788 144.931204 
L 148.45364 144.931204 
L 149.006566 144.459432 
L 149.559492 144.459432 
L 150.112417 143.515886 
L 150.665343 141.157023 
L 151.218269 140.685251 
L 151.771195 139.269933 
L 152.324121 138.79816 
L 152.877046 138.79816 
L 153.982898 136.91107 
L 154.535824 136.439297 
L 155.088749 135.495752 
L 155.641675 135.495752 
L 156.747527 134.552207 
L 158.406304 134.552207 
L 158.95923 133.608661 
L 159.512156 133.136889 
L 162.276785 133.136889 
L 162.82971 132.665116 
L 163.382636 132.665116 
L 163.935562 132.193343 
L 164.488488 132.193343 
L 165.041414 131.721571 
L 166.147265 131.721571 
L 166.700191 131.249798 
L 167.253117 131.249798 
L 167.806043 129.83448 
L 168.358968 129.83448 
L 168.911894 129.362708 
L 169.46482 127.94739 
L 170.017746 127.475617 
L 170.570672 126.532072 
L 171.123597 126.060299 
L 172.229449 126.060299 
L 174.994078 123.701436 
L 175.547004 123.701436 
L 176.099929 122.757891 
L 176.652855 122.757891 
L 177.205781 121.814346 
L 177.758707 121.814346 
L 178.311633 120.870801 
L 178.864558 119.455483 
L 179.417484 118.98371 
L 180.523336 117.09662 
L 181.076261 116.624847 
L 182.182113 116.624847 
L 182.735039 115.681302 
L 183.287965 115.209529 
L 184.393816 111.435348 
L 184.946742 110.491803 
L 186.605519 109.076485 
L 187.711371 109.076485 
L 188.264297 108.604713 
L 188.817223 107.189395 
L 189.370148 105.302304 
L 189.923074 104.830532 
L 190.476 104.830532 
L 191.028926 104.358759 
L 191.581851 104.358759 
L 192.134777 103.886986 
L 192.687703 102.471668 
L 193.240629 101.999896 
L 193.793555 101.056351 
L 195.452332 101.056351 
L 196.558184 100.112805 
L 198.216961 100.112805 
L 198.769887 99.641033 
L 199.322812 98.225715 
L 200.428664 98.225715 
L 200.98159 96.338624 
L 201.534516 95.866852 
L 202.087441 95.866852 
L 202.640367 94.451534 
L 203.193293 93.507989 
L 203.746219 93.036216 
L 204.299145 93.036216 
L 204.85207 92.564443 
L 205.404996 92.564443 
L 207.063774 91.149126 
L 208.169625 91.149126 
L 208.722551 89.733808 
L 209.828402 89.733808 
L 210.381328 89.262035 
L 211.48718 89.262035 
L 212.040106 88.790263 
L 213.145957 88.790263 
L 213.698883 88.31849 
L 214.251809 88.31849 
L 214.804735 87.846717 
L 215.910586 87.846717 
L 216.463512 87.374945 
L 217.569363 87.374945 
L 218.675215 86.431399 
L 219.781067 86.431399 
L 220.886918 85.487854 
L 221.99277 85.487854 
L 222.545696 85.016082 
L 224.757399 85.016082 
L 225.86325 84.072536 
L 226.416176 84.072536 
L 226.969102 83.600764 
L 227.522028 83.600764 
L 228.074953 83.128991 
L 228.627879 82.185446 
L 230.286657 82.185446 
L 230.839582 81.241901 
L 231.945434 81.241901 
L 233.051286 80.298355 
L 234.157137 80.298355 
L 234.710063 79.826583 
L 237.474692 79.826583 
L 239.133469 78.411265 
L 241.898098 78.411265 
L 242.451024 77.939492 
L 243.00395 77.939492 
L 243.556875 76.995947 
L 244.109801 76.524174 
L 245.215653 76.524174 
L 245.768579 75.580629 
L 246.87443 75.580629 
L 247.427356 75.108857 
L 252.956614 75.108857 
L 253.50954 74.637084 
L 257.38002 74.637084 
L 259.038798 73.221766 
L 259.591723 73.221766 
L 260.144649 72.749993 
L 261.803426 72.749993 
L 262.356352 72.278221 
L 264.01513 72.278221 
L 264.568055 71.806448 
L 265.120981 71.806448 
L 265.673907 71.334676 
L 268.991462 71.334676 
L 270.097313 70.39113 
L 272.861942 70.39113 
L 273.414868 69.919358 
L 273.967794 69.919358 
L 276.179497 68.032267 
L 279.497052 68.032267 
L 280.049977 67.560495 
L 281.155829 67.560495 
L 281.708755 67.088722 
L 282.261681 66.145177 
L 282.814606 65.673404 
L 283.920458 65.673404 
L 284.473384 64.729859 
L 285.02631 63.314541 
L 285.579235 63.314541 
L 286.132161 62.842768 
L 291.108493 62.842768 
L 291.661419 62.370996 
L 292.214345 62.370996 
L 293.320196 61.427451 
L 295.5319 61.427451 
L 296.084825 60.955678 
L 299.40238 60.955678 
L 299.955306 60.012133 
L 302.719935 60.012133 
L 303.272861 59.54036 
L 304.378712 59.54036 
L 304.931638 59.068588 
L 305.484564 59.068588 
L 306.03749 58.596815 
L 307.143341 58.596815 
L 307.696267 58.125042 
L 308.802118 58.125042 
L 313.225525 54.350861 
L 313.778451 53.407316 
L 314.884302 53.407316 
L 315.437228 52.935544 
L 318.754783 52.935544 
L 319.307708 52.463771 
L 320.966486 52.463771 
L 322.072337 51.520226 
L 322.625263 51.520226 
L 323.178189 51.048453 
L 323.731115 51.048453 
L 324.284041 50.57668 
L 324.836966 50.57668 
L 325.942818 49.633135 
L 327.048669 49.633135 
L 328.154521 48.68959 
L 330.91915 48.68959 
L 332.025002 47.746045 
L 332.577927 47.746045 
L 333.130853 47.274272 
L 334.236705 47.274272 
L 334.78963 46.802499 
L 340.871814 46.802499 
L 341.42474 46.330727 
L 345.848146 46.330727 
L 346.401072 45.858954 
L 348.059849 45.858954 
L 348.612775 45.387182 
L 350.824478 45.387182 
L 351.377404 44.915409 
L 352.483256 44.915409 
L 353.036181 44.443636 
L 353.036181 44.443636 
" style="fill:none;stroke:#440154;stroke-linecap:square;stroke-width:4;"/>
   </g>
   <g id="line2d_26">
    <path clip-path="url(#pb42df311b9)" d="M 87.054865 242.116364 
L 88.163741 242.116364 
L 88.71818 241.644591 
L 90.381495 241.644591 
L 90.935933 241.172818 
L 91.490371 240.229273 
L 94.817001 240.229273 
L 95.371439 239.757501 
L 97.034754 239.757501 
L 97.589192 239.285728 
L 98.14363 238.342183 
L 100.361384 238.342183 
L 101.47026 237.398637 
L 102.024698 236.455092 
L 102.579137 236.455092 
L 103.688013 234.568002 
L 104.79689 234.568002 
L 105.351328 234.096229 
L 105.905766 234.096229 
L 106.460205 232.680911 
L 107.014643 232.680911 
L 107.569081 232.209139 
L 108.12352 232.209139 
L 108.677958 231.265593 
L 109.786834 230.322048 
L 110.895711 230.322048 
L 111.450149 229.850276 
L 112.004588 228.90673 
L 113.113464 227.963185 
L 113.667902 227.963185 
L 114.776779 227.01964 
L 115.331217 227.01964 
L 115.885656 225.132549 
L 117.54897 223.717232 
L 118.103409 223.717232 
L 120.8756 221.358368 
L 121.430038 219.943051 
L 121.984477 219.471278 
L 122.538915 218.05596 
L 123.093353 218.05596 
L 124.20223 217.112415 
L 124.756668 217.112415 
L 125.311106 216.640642 
L 125.865545 215.697097 
L 126.419983 215.697097 
L 126.974421 214.281779 
L 127.528859 214.281779 
L 128.083298 213.810007 
L 128.637736 212.866461 
L 129.192174 212.866461 
L 129.746613 211.451143 
L 130.301051 211.451143 
L 130.855489 210.035826 
L 131.964366 208.148735 
L 132.518804 208.148735 
L 133.073242 207.676962 
L 134.182119 205.789872 
L 134.736557 205.789872 
L 135.845434 204.846327 
L 137.508749 204.846327 
L 138.063187 204.374554 
L 138.617625 203.431009 
L 139.726502 203.431009 
L 140.28094 202.487464 
L 141.944255 202.487464 
L 142.498693 201.543918 
L 143.053131 201.543918 
L 143.60757 200.128601 
L 144.716446 200.128601 
L 145.270884 197.769737 
L 146.379761 196.826192 
L 147.488638 196.826192 
L 148.043076 196.35442 
L 149.151952 194.467329 
L 149.706391 194.467329 
L 150.260829 193.995557 
L 150.815267 193.995557 
L 151.369706 193.523784 
L 151.924144 192.580239 
L 152.478582 192.108466 
L 153.03302 190.693148 
L 153.587459 190.693148 
L 154.696335 189.749603 
L 155.805212 189.749603 
L 156.35965 189.27783 
L 156.914088 188.334285 
L 158.577403 188.334285 
L 159.131842 186.918967 
L 159.68628 186.918967 
L 160.795156 185.975422 
L 161.349595 185.031877 
L 161.904033 184.560104 
L 163.01291 184.560104 
L 163.567348 183.616559 
L 164.121786 183.616559 
L 164.676224 182.673014 
L 165.230663 182.201241 
L 165.785101 181.257696 
L 166.893977 180.314151 
L 168.002854 177.483515 
L 168.557292 177.011742 
L 169.111731 175.596424 
L 169.666169 175.124652 
L 170.220607 173.709334 
L 171.883922 172.294016 
L 172.43836 172.294016 
L 172.992799 171.350471 
L 173.547237 170.878698 
L 174.101675 170.878698 
L 174.656113 168.991608 
L 175.210552 168.048062 
L 175.76499 166.632745 
L 176.319428 166.632745 
L 176.873867 166.160972 
L 177.428305 165.217427 
L 177.982743 164.745654 
L 178.537181 163.802109 
L 179.09162 161.915018 
L 179.646058 160.499701 
L 180.200496 159.556155 
L 180.754935 159.084383 
L 181.309373 157.669065 
L 181.863811 157.669065 
L 182.418249 157.197292 
L 182.972688 157.197292 
L 183.527126 156.72552 
L 184.081564 155.310202 
L 184.636003 154.838429 
L 185.190441 153.423111 
L 185.744879 152.951339 
L 186.853756 150.120703 
L 187.962632 150.120703 
L 188.51707 149.64893 
L 189.071509 149.64893 
L 189.625947 148.233612 
L 190.180385 148.233612 
L 191.289262 147.290067 
L 192.398138 144.459432 
L 194.615892 142.572341 
L 195.17033 141.628796 
L 195.724768 141.628796 
L 196.833645 139.741705 
L 197.942521 136.91107 
L 200.160274 133.136889 
L 201.823589 131.721571 
L 202.378028 131.721571 
L 202.932466 131.249798 
L 203.486904 130.306253 
L 204.041342 130.306253 
L 205.704657 127.475617 
L 206.259096 127.003845 
L 207.92241 127.003845 
L 208.476849 126.532072 
L 209.031287 125.116754 
L 209.585725 124.173209 
L 210.140163 124.173209 
L 210.694602 123.701436 
L 211.24904 122.286118 
L 212.357917 122.286118 
L 212.912355 121.814346 
L 214.021231 121.814346 
L 214.57567 121.342573 
L 215.130108 120.399028 
L 216.793423 120.399028 
L 217.902299 119.455483 
L 218.456738 118.511938 
L 219.011176 117.09662 
L 219.565614 117.09662 
L 220.120053 116.624847 
L 221.228929 114.737757 
L 221.783367 114.737757 
L 222.337806 114.265984 
L 222.892244 114.265984 
L 223.446682 113.794211 
L 224.001121 113.794211 
L 224.555559 113.322439 
L 225.109997 111.907121 
L 226.218874 111.907121 
L 226.773312 111.435348 
L 227.32775 111.435348 
L 228.991065 110.02003 
L 229.545503 109.076485 
L 230.099942 108.604713 
L 230.65438 107.189395 
L 231.208818 107.189395 
L 231.763256 106.245849 
L 232.317695 105.774077 
L 232.872133 104.830532 
L 233.426571 104.830532 
L 233.98101 104.358759 
L 234.535448 104.358759 
L 235.089886 103.886986 
L 236.198763 103.886986 
L 236.753201 103.415214 
L 237.307639 102.471668 
L 237.862078 101.999896 
L 238.416516 101.056351 
L 238.970954 101.056351 
L 240.079831 100.112805 
L 240.634269 99.16926 
L 241.188707 99.16926 
L 242.297584 98.225715 
L 243.40646 98.225715 
L 243.960899 97.753942 
L 244.515337 96.810397 
L 245.624214 95.866852 
L 248.950843 95.866852 
L 250.05972 94.923307 
L 251.168596 94.923307 
L 251.723035 93.979761 
L 254.495226 93.979761 
L 255.049664 93.507989 
L 256.712979 93.507989 
L 257.267417 93.036216 
L 257.821856 93.036216 
L 258.376294 91.620898 
L 259.485171 90.677353 
L 260.039609 88.790263 
L 260.594047 87.846717 
L 265.029553 87.846717 
L 265.583992 86.903172 
L 266.13843 86.431399 
L 266.692868 85.487854 
L 267.247307 85.487854 
L 267.801745 85.016082 
L 271.128375 85.016082 
L 271.682813 84.072536 
L 272.237251 83.600764 
L 272.791689 82.657218 
L 273.346128 82.185446 
L 273.900566 80.770128 
L 275.009442 79.826583 
L 275.563881 78.411265 
L 276.672757 78.411265 
L 277.227196 77.46772 
L 278.89051 76.052402 
L 279.999387 76.052402 
L 280.553825 75.580629 
L 281.108264 75.580629 
L 282.21714 73.693539 
L 283.880455 73.693539 
L 284.434893 72.749993 
L 284.989332 72.278221 
L 285.54377 72.278221 
L 286.098208 71.334676 
L 287.207085 71.334676 
L 287.761523 70.39113 
L 288.315961 69.919358 
L 288.8704 68.975813 
L 290.533714 67.560495 
L 292.751468 67.560495 
L 293.305906 65.673404 
L 293.860344 65.673404 
L 294.969221 64.729859 
L 296.632535 64.729859 
L 297.186974 64.258086 
L 297.741412 64.258086 
L 298.850289 63.314541 
L 299.959165 63.314541 
L 300.513603 62.842768 
L 301.62248 62.842768 
L 302.731357 61.899223 
L 303.840233 61.899223 
L 304.394671 61.427451 
L 304.94911 60.483905 
L 305.503548 60.012133 
L 306.057986 59.068588 
L 307.166863 59.068588 
L 307.721301 58.125042 
L 309.384616 58.125042 
L 310.493493 57.181497 
L 311.047931 56.237952 
L 311.602369 55.766179 
L 312.711246 55.766179 
L 313.265684 55.294407 
L 318.255628 55.294407 
L 318.810067 54.822634 
L 320.473382 54.822634 
L 321.02782 53.879089 
L 322.136696 52.935544 
L 325.463326 52.935544 
L 326.572203 51.991998 
L 327.681079 51.991998 
L 328.235518 51.520226 
L 328.789956 50.57668 
L 331.007709 50.57668 
L 331.562147 50.104908 
L 334.888777 50.104908 
L 335.443215 49.633135 
L 335.997654 49.633135 
L 336.552092 49.161363 
L 338.769845 49.161363 
L 340.43316 47.746045 
L 343.759789 47.746045 
L 344.314228 47.274272 
L 346.531981 47.274272 
L 348.195296 45.858954 
L 348.749734 45.858954 
L 349.304172 45.387182 
L 354.294117 45.387182 
L 354.848555 44.915409 
L 363.165129 44.915409 
L 363.719568 44.443636 
L 363.719568 44.443636 
" style="fill:none;stroke:#3d4e8a;stroke-linecap:square;stroke-width:4;"/>
   </g>
   <g id="line2d_27">
    <path clip-path="url(#pb42df311b9)" d="M 69.218182 242.116364 
L 69.828129 241.644591 
L 71.048023 241.644591 
L 72.267918 240.701046 
L 72.877865 240.701046 
L 73.487812 240.229273 
L 74.707706 240.229273 
L 75.927601 239.285728 
L 76.537548 239.285728 
L 77.147495 238.813955 
L 78.367389 238.813955 
L 78.977336 237.87041 
L 80.197231 236.926865 
L 80.807178 236.926865 
L 81.417125 236.455092 
L 85.686755 236.455092 
L 86.296702 235.98332 
L 91.17628 235.98332 
L 93.006121 234.568002 
L 93.616069 233.624456 
L 95.44591 233.624456 
L 96.055857 233.152684 
L 97.885699 233.152684 
L 98.495646 232.680911 
L 99.105593 232.680911 
L 100.325487 231.737366 
L 104.595118 231.737366 
L 106.424959 230.322048 
L 107.644853 230.322048 
L 108.254801 229.850276 
L 109.474695 229.850276 
L 110.084642 228.90673 
L 110.694589 228.90673 
L 111.304536 227.963185 
L 114.964219 225.132549 
L 115.574167 223.245459 
L 116.184114 222.301914 
L 116.794061 222.301914 
L 118.013955 221.358368 
L 118.623902 219.943051 
L 119.843797 219.943051 
L 120.453744 219.471278 
L 121.063691 219.471278 
L 121.673638 218.999505 
L 122.283585 218.05596 
L 124.723374 218.05596 
L 125.333321 217.584187 
L 125.943268 215.697097 
L 126.553216 214.753552 
L 127.163163 214.281779 
L 127.77311 213.338234 
L 128.383057 212.866461 
L 128.993004 211.451143 
L 130.212899 211.451143 
L 130.822846 210.979371 
L 132.04274 210.979371 
L 132.652687 210.507598 
L 133.262634 210.507598 
L 133.872582 209.564053 
L 135.092476 209.564053 
L 135.702423 209.09228 
L 138.142212 209.09228 
L 138.752159 208.620508 
L 139.362106 207.20519 
L 139.972053 206.733417 
L 141.191948 206.733417 
L 141.801895 206.261645 
L 143.021789 206.261645 
L 144.851631 204.846327 
L 145.461578 204.846327 
L 146.071525 204.374554 
L 150.951102 204.374554 
L 151.561049 203.902782 
L 152.170997 203.902782 
L 152.780944 203.431009 
L 154.000838 201.543918 
L 158.270468 201.543918 
L 158.880415 200.128601 
L 160.10031 199.185055 
L 160.710257 199.185055 
L 161.320204 198.713283 
L 162.540098 198.713283 
L 163.150046 197.769737 
L 163.759993 197.769737 
L 164.36994 196.826192 
L 165.589834 196.826192 
L 167.419676 195.410874 
L 168.029623 195.410874 
L 169.249517 194.467329 
L 169.859464 194.467329 
L 170.469412 193.052011 
L 171.079359 192.580239 
L 172.9092 192.580239 
L 173.519147 192.108466 
L 175.348989 192.108466 
L 175.958936 191.636693 
L 176.568883 190.693148 
L 177.17883 190.221376 
L 177.788778 189.27783 
L 178.398725 188.806058 
L 179.618619 188.806058 
L 180.228566 187.862512 
L 180.838513 187.39074 
L 182.058408 187.39074 
L 182.668355 186.918967 
L 183.278302 186.918967 
L 183.888249 186.447195 
L 185.108144 186.447195 
L 185.718091 185.031877 
L 186.328038 184.560104 
L 187.547932 184.560104 
L 188.157879 183.616559 
L 188.767827 183.616559 
L 189.377774 183.144786 
L 191.207615 183.144786 
L 192.42751 182.201241 
L 196.087193 182.201241 
L 196.69714 180.785923 
L 197.307087 178.898833 
L 197.917034 178.898833 
L 198.526981 177.955287 
L 200.96677 177.955287 
L 202.186664 176.068197 
L 202.796611 176.068197 
L 207.066242 172.765789 
L 207.676189 172.765789 
L 208.286136 172.294016 
L 208.896083 172.294016 
L 209.50603 171.822243 
L 210.115977 171.822243 
L 210.725925 171.350471 
L 211.335872 171.350471 
L 211.945819 170.406926 
L 212.555766 169.935153 
L 214.385608 169.935153 
L 215.605502 168.991608 
L 216.215449 168.991608 
L 216.825396 168.519835 
L 218.045291 168.519835 
L 218.655238 168.048062 
L 219.875132 168.048062 
L 220.485079 167.57629 
L 221.095026 166.160972 
L 222.924868 164.745654 
L 224.144762 164.745654 
L 224.754709 164.273882 
L 225.364657 164.273882 
L 225.974604 163.330336 
L 230.244234 163.330336 
L 230.854181 162.858564 
L 231.464128 162.858564 
L 233.29397 161.443246 
L 233.903917 161.443246 
L 234.513864 159.556155 
L 236.343706 159.556155 
L 236.953653 158.140837 
L 237.5636 158.140837 
L 238.173547 157.669065 
L 238.783494 157.669065 
L 239.393441 157.197292 
L 243.663072 157.197292 
L 245.492913 155.781974 
L 246.712807 153.894884 
L 247.322755 152.479566 
L 247.932702 152.479566 
L 249.152596 151.536021 
L 253.422226 151.536021 
L 254.642121 150.592476 
L 255.252068 149.64893 
L 255.862015 149.177158 
L 256.471962 149.177158 
L 258.301804 147.76184 
L 259.521698 147.76184 
L 260.741592 146.818295 
L 261.351539 145.874749 
L 261.961487 145.402977 
L 262.571434 143.987659 
L 263.181381 143.987659 
L 263.791328 143.515886 
L 264.401275 142.572341 
L 265.011222 142.572341 
L 268.060958 140.213478 
L 269.280853 138.326388 
L 270.500747 138.326388 
L 271.110694 137.854615 
L 272.330588 135.967524 
L 272.940536 135.967524 
L 274.16043 135.023979 
L 275.990271 135.023979 
L 276.600219 134.552207 
L 279.040007 134.552207 
L 279.649954 133.136889 
L 280.869849 133.136889 
L 281.479796 131.721571 
L 282.089743 131.721571 
L 283.919585 130.306253 
L 284.529532 128.890935 
L 285.139479 128.419163 
L 286.359373 125.588527 
L 287.579268 124.644982 
L 288.189215 124.644982 
L 288.799162 123.229664 
L 290.019056 122.286118 
L 291.848898 119.455483 
L 292.458845 118.98371 
L 293.068792 118.98371 
L 293.678739 117.568392 
L 294.898634 117.568392 
L 296.118528 115.681302 
L 296.728475 113.322439 
L 297.338422 112.850666 
L 297.948369 112.850666 
L 298.558317 110.963576 
L 299.168264 109.548258 
L 300.388158 109.548258 
L 301.608052 108.604713 
L 302.218 107.661167 
L 302.827947 107.661167 
L 303.437894 106.717622 
L 304.047841 106.717622 
L 305.267735 103.886986 
L 305.877683 103.415214 
L 306.48763 102.471668 
L 307.097577 102.471668 
L 307.707524 101.999896 
L 308.317471 101.056351 
L 308.927418 100.584578 
L 310.147313 100.584578 
L 310.75726 100.112805 
L 311.367207 98.697488 
L 311.977154 96.338624 
L 313.197049 95.395079 
L 313.806996 94.451534 
L 314.416943 93.979761 
L 315.02689 93.979761 
L 316.246784 92.092671 
L 316.856732 90.677353 
L 317.466679 90.20558 
L 318.076626 90.20558 
L 318.686573 89.262035 
L 319.29652 89.262035 
L 319.906467 88.31849 
L 320.516415 88.31849 
L 321.126362 87.374945 
L 321.736309 86.903172 
L 322.346256 86.903172 
L 323.56615 85.016082 
L 324.176098 84.544309 
L 324.786045 83.600764 
L 326.005939 82.657218 
L 326.615886 81.713673 
L 328.445728 81.713673 
L 329.055675 80.770128 
L 329.665622 80.770128 
L 330.275569 80.298355 
L 332.105411 80.298355 
L 332.715358 79.826583 
L 333.325305 79.826583 
L 333.935252 79.35481 
L 334.545199 78.411265 
L 335.155147 77.939492 
L 335.765094 77.939492 
L 336.375041 76.052402 
L 337.594935 75.108857 
L 338.204882 75.108857 
L 338.81483 74.165311 
L 340.034724 74.165311 
L 340.644671 73.693539 
L 343.694407 73.693539 
L 344.304354 72.749993 
L 344.914301 72.278221 
L 345.524248 71.334676 
L 346.134196 71.334676 
L 347.35409 70.39113 
L 347.964037 69.447585 
L 348.573984 68.975813 
L 349.183931 68.975813 
L 349.793879 68.032267 
L 350.403826 66.616949 
L 354.063509 63.786314 
L 354.673456 61.899223 
L 355.89335 61.899223 
L 356.503298 60.483905 
L 357.723192 58.596815 
L 358.333139 58.125042 
L 358.943086 56.237952 
L 359.553033 56.237952 
L 360.162981 54.822634 
L 360.772928 54.350861 
L 361.382875 53.407316 
L 362.602769 53.407316 
L 363.212716 51.991998 
L 363.822664 51.048453 
L 364.432611 51.048453 
L 365.042558 50.57668 
L 365.652505 49.633135 
L 368.092294 47.746045 
L 368.702241 46.330727 
L 369.312188 46.330727 
L 369.922135 45.858954 
L 371.14203 45.858954 
L 371.751977 45.387182 
L 372.361924 45.387182 
L 373.581818 44.443636 
L 373.581818 44.443636 
" style="fill:none;stroke:#23898e;stroke-linecap:square;stroke-width:4;"/>
   </g>
   <g id="line2d_28">
    <path clip-path="url(#pb42df311b9)" d="M 74.216576 242.116364 
L 77.168804 242.116364 
L 77.660841 241.644591 
L 83.565297 241.644591 
L 84.057335 241.172818 
L 87.009563 241.172818 
L 89.96179 238.342183 
L 90.453828 238.342183 
L 91.437904 236.455092 
L 91.929942 236.455092 
L 92.42198 235.511547 
L 93.406056 232.680911 
L 94.390132 231.737366 
L 95.866246 231.737366 
L 96.850322 230.793821 
L 97.34236 230.793821 
L 98.818473 229.378503 
L 99.310511 229.378503 
L 99.802549 228.434958 
L 100.294587 228.434958 
L 101.278663 226.547867 
L 101.770701 224.660777 
L 102.262739 224.660777 
L 102.754777 224.189004 
L 103.738853 224.189004 
L 104.230891 223.717232 
L 105.214967 223.717232 
L 105.707005 222.301914 
L 107.675157 222.301914 
L 108.167195 220.886596 
L 108.659233 219.943051 
L 109.643308 218.999505 
L 110.135346 218.05596 
L 110.627384 217.584187 
L 111.119422 216.640642 
L 111.61146 215.225324 
L 112.595536 215.225324 
L 113.087574 213.810007 
L 113.579612 213.338234 
L 114.07165 212.394689 
L 114.563688 212.394689 
L 115.055726 211.922916 
L 116.039802 211.922916 
L 116.53184 210.507598 
L 117.023878 208.620508 
L 117.515916 207.676962 
L 118.007954 206.261645 
L 118.99203 206.261645 
L 119.484067 204.374554 
L 120.468143 203.431009 
L 120.960181 203.431009 
L 121.452219 202.015691 
L 122.436295 202.015691 
L 122.928333 200.600373 
L 123.420371 200.128601 
L 123.912409 199.185055 
L 124.404447 198.713283 
L 124.896485 197.769737 
L 125.388523 195.410874 
L 125.880561 194.939102 
L 126.864637 193.052011 
L 127.356675 193.052011 
L 127.848713 192.108466 
L 128.340751 192.108466 
L 128.832789 190.693148 
L 129.324827 190.693148 
L 129.816864 189.27783 
L 130.308902 188.334285 
L 130.80094 187.862512 
L 131.292978 185.975422 
L 131.785016 185.031877 
L 132.277054 185.031877 
L 132.769092 184.088332 
L 133.26113 183.616559 
L 134.245206 181.729468 
L 134.737244 181.257696 
L 135.229282 181.257696 
L 136.213358 180.314151 
L 136.705396 178.42706 
L 137.197434 177.483515 
L 137.689472 177.483515 
L 138.673548 176.53997 
L 139.165586 175.596424 
L 139.657624 175.596424 
L 141.625775 173.709334 
L 142.117813 172.765789 
L 143.101889 171.822243 
L 143.593927 171.822243 
L 144.085965 171.350471 
L 144.578003 171.350471 
L 145.070041 170.878698 
L 145.562079 170.878698 
L 146.054117 170.406926 
L 146.546155 170.406926 
L 147.038193 169.935153 
L 147.530231 169.935153 
L 148.022269 169.46338 
L 148.514307 169.46338 
L 149.498383 168.519835 
L 149.990421 168.519835 
L 150.482458 168.048062 
L 150.974496 166.632745 
L 151.466534 166.160972 
L 151.958572 166.160972 
L 152.942648 165.217427 
L 153.926724 165.217427 
L 154.418762 164.273882 
L 157.37099 164.273882 
L 160.815256 160.971473 
L 161.799331 160.971473 
L 163.275445 158.140837 
L 164.751559 158.140837 
L 165.243597 157.197292 
L 165.735635 156.72552 
L 166.719711 156.72552 
L 170.163977 153.423111 
L 170.656015 152.479566 
L 171.148053 152.007793 
L 172.132128 150.120703 
L 172.624166 148.233612 
L 176.068432 144.931204 
L 177.052508 144.931204 
L 177.544546 142.572341 
L 178.036584 142.572341 
L 178.528622 141.628796 
L 179.02066 141.628796 
L 179.512698 140.685251 
L 180.004736 140.213478 
L 180.496774 140.213478 
L 180.988812 139.269933 
L 181.48085 138.79816 
L 181.972887 137.382842 
L 182.464925 136.91107 
L 183.449001 135.023979 
L 184.433077 135.023979 
L 184.925115 133.608661 
L 185.417153 133.608661 
L 186.401229 131.721571 
L 187.385305 128.890935 
L 188.861419 128.890935 
L 190.337533 127.475617 
L 190.829571 126.532072 
L 191.321609 126.060299 
L 191.813647 126.060299 
L 192.797722 125.116754 
L 193.28976 123.701436 
L 194.273836 122.757891 
L 194.765874 121.342573 
L 195.257912 120.870801 
L 195.74995 120.870801 
L 197.226064 119.455483 
L 197.718102 119.455483 
L 198.21014 118.040165 
L 198.702178 117.568392 
L 199.194216 117.568392 
L 200.67033 116.153074 
L 201.162368 116.153074 
L 201.654406 115.209529 
L 202.146444 113.322439 
L 202.638481 113.322439 
L 203.130519 112.850666 
L 204.114595 110.963576 
L 205.590709 109.548258 
L 206.082747 109.548258 
L 206.574785 109.076485 
L 207.558861 107.189395 
L 209.034975 105.774077 
L 209.527013 105.774077 
L 210.019051 105.302304 
L 210.511089 105.302304 
L 211.003127 104.830532 
L 211.495165 102.943441 
L 213.463316 99.16926 
L 213.955354 99.16926 
L 214.93943 98.225715 
L 215.431468 96.810397 
L 215.923506 96.338624 
L 216.907582 94.451534 
L 217.891658 93.507989 
L 218.383696 93.507989 
L 218.875734 92.564443 
L 219.367772 92.564443 
L 219.85981 91.620898 
L 221.335924 90.20558 
L 221.827962 90.20558 
L 222.32 89.733808 
L 222.812038 89.733808 
L 223.796113 88.790263 
L 224.288151 88.790263 
L 224.780189 87.374945 
L 225.272227 87.374945 
L 225.764265 86.903172 
L 226.748341 86.903172 
L 227.240379 85.959627 
L 227.732417 85.959627 
L 228.224455 85.016082 
L 228.716493 84.544309 
L 230.192607 84.544309 
L 231.176683 83.600764 
L 232.652797 83.600764 
L 233.144835 82.657218 
L 233.636873 82.657218 
L 234.12891 82.185446 
L 234.620948 81.241901 
L 235.605024 80.298355 
L 236.5891 78.411265 
L 237.081138 78.411265 
L 238.065214 77.46772 
L 238.557252 77.46772 
L 239.541328 76.524174 
L 240.033366 76.524174 
L 240.525404 74.165311 
L 241.50948 74.165311 
L 242.001518 73.693539 
L 242.985594 73.693539 
L 244.461707 72.278221 
L 244.953745 71.334676 
L 245.445783 71.334676 
L 245.937821 70.862903 
L 246.429859 70.862903 
L 246.921897 70.39113 
L 247.413935 69.447585 
L 247.905973 69.447585 
L 248.890049 68.50404 
L 249.874125 66.616949 
L 251.350239 65.201632 
L 251.842277 65.201632 
L 252.334315 64.258086 
L 253.810429 62.842768 
L 254.794504 60.955678 
L 255.286542 60.483905 
L 256.762656 60.483905 
L 258.23877 59.068588 
L 258.730808 59.068588 
L 259.222846 58.596815 
L 259.714884 57.65327 
L 260.206922 57.65327 
L 260.69896 56.709724 
L 261.190998 56.709724 
L 261.683036 56.237952 
L 262.175074 56.237952 
L 262.667112 55.766179 
L 263.15915 55.766179 
L 263.651188 55.294407 
L 267.587491 55.294407 
L 268.571567 54.350861 
L 269.063605 53.407316 
L 269.555643 53.407316 
L 270.047681 52.935544 
L 270.539719 52.935544 
L 271.031757 52.463771 
L 273.491947 52.463771 
L 273.983985 51.520226 
L 278.904364 51.520226 
L 279.396402 51.048453 
L 280.872516 51.048453 
L 281.364554 50.57668 
L 286.284933 50.57668 
L 286.776971 50.104908 
L 287.269009 50.104908 
L 288.253085 49.161363 
L 289.237161 49.161363 
L 289.729199 48.68959 
L 290.221237 48.68959 
L 290.713275 48.217817 
L 291.205313 48.217817 
L 291.697351 47.274272 
L 296.61773 47.274272 
L 297.109768 46.802499 
L 301.046072 46.802499 
L 301.53811 46.330727 
L 302.030148 46.330727 
L 302.522186 45.387182 
L 315.315173 45.387182 
L 315.807211 44.915409 
L 319.251476 44.915409 
L 319.743514 44.443636 
L 319.743514 44.443636 
" style="fill:none;stroke:#46c06f;stroke-linecap:square;stroke-width:4;"/>
   </g>
   <g id="patch_3">
    <path d="M 54 252 
L 54 34.56 
" style="fill:none;stroke:#000000;stroke-linecap:square;stroke-linejoin:miter;stroke-width:0.8;"/>
   </g>
   <g id="patch_4">
    <path d="M 388.8 252 
L 388.8 34.56 
" style="fill:none;stroke:#000000;stroke-linecap:square;stroke-linejoin:miter;stroke-width:0.8;"/>
   </g>
   <g id="patch_5">
    <path d="M 54 252 
L 388.8 252 
" style="fill:none;stroke:#000000;stroke-linecap:square;stroke-linejoin:miter;stroke-width:0.8;"/>
   </g>
   <g id="patch_6">
    <path d="M 54 34.56 
L 388.8 34.56 
" style="fill:none;stroke:#000000;stroke-linecap:square;stroke-linejoin:miter;stroke-width:0.8;"/>
   </g>
   <g id="legend_1">
    <g id="patch_7">
     <path d="M 61 101.2725 
L 120.639062 101.2725 
Q 122.639062 101.2725 122.639062 99.2725 
L 122.639062 41.56 
Q 122.639062 39.56 120.639062 39.56 
L 61 39.56 
Q 59 39.56 59 41.56 
L 59 99.2725 
Q 59 101.2725 61 101.2725 
z
" style="fill:#ffffff;opacity:0.8;stroke:#cccccc;stroke-linejoin:miter;"/>
    </g>
    <g id="line2d_29">
     <path d="M 63 47.658437 
L 83 47.658437 
" style="fill:none;stroke:#440154;stroke-linecap:square;stroke-width:4;"/>
    </g>
    <g id="line2d_30"/>
    <g id="text_13">
     <text style="font-family:DejaVu Sans;font-size:10px;font-style:normal;font-weight:normal;text-anchor:start;" transform="rotate(-0, 91, 51.158437)" x="91" y="51.158437">Bag</text>
    </g>
    <g id="line2d_31">
     <path d="M 63 62.336562 
L 83 62.336562 
" style="fill:none;stroke:#3d4e8a;stroke-linecap:square;stroke-width:4;"/>
    </g>
    <g id="line2d_32"/>
    <g id="text_14">
     <text style="font-family:DejaVu Sans;font-size:10px;font-style:normal;font-weight:normal;text-anchor:start;" transform="rotate(-0, 91, 65.836562)" x="91" y="65.836562">Torso</text>
    </g>
    <g id="line2d_33">
     <path d="M 63 77.014687 
L 83 77.014687 
" style="fill:none;stroke:#23898e;stroke-linecap:square;stroke-width:4;"/>
    </g>
    <g id="line2d_34"/>
    <g id="text_15">
     <text style="font-family:DejaVu Sans;font-size:10px;font-style:normal;font-weight:normal;text-anchor:start;" transform="rotate(-0, 91, 80.514687)" x="91" y="80.514687">Hips</text>
    </g>
    <g id="line2d_35">
     <path d="M 63 91.692813 
L 83 91.692813 
" style="fill:none;stroke:#46c06f;stroke-linecap:square;stroke-width:4;"/>
    </g>
    <g id="line2d_36"/>
    <g id="text_16">
     <text style="font-family:DejaVu Sans;font-size:10px;font-style:normal;font-weight:normal;text-anchor:start;" transform="rotate(-0, 91, 95.192813)" x="91" y="95.192813">Hand</text>
    </g>
   </g>
  </g>
  <g id="text_17">
   <text style="font-family:DejaVu Sans;font-size:12px;font-style:normal;font-weight:normal;text-anchor:middle;" transform="rotate(-0, 216, 14.878125)" x="216" y="14.878125">Performances on each generator over all experiments</text>
  </g>
 </g>
 <defs>
  <clipPath id="pb42df311b9">
   <rect height="217.44" width="334.8" x="54" y="34.56"/>
  </clipPath>
 </defs>
</svg>
