<?xml version="1.0" encoding="utf-8" standalone="no"?>
<!DOCTYPE svg PUBLIC "-//W3C//DTD SVG 1.1//EN"
  "http://www.w3.org/Graphics/SVG/1.1/DTD/svg11.dtd">
<!-- Created with matplotlib (http://matplotlib.org/) -->
<svg height="144pt" version="1.1" viewBox="0 0 720 144" width="720pt" xmlns="http://www.w3.org/2000/svg" xmlns:xlink="http://www.w3.org/1999/xlink">
 <defs>
  <style type="text/css">
*{stroke-linecap:butt;stroke-linejoin:round;}
  </style>
 </defs>
 <g id="figure_1">
  <g id="patch_1">
   <path d="M 0 144 
L 720 144 
L 720 0 
L 0 0 
z
" style="fill:#ffffff;"/>
  </g>
  <g id="axes_1">
   <g id="patch_2">
    <path d="M 90 126 
L 648 126 
L 648 17.28 
L 90 17.28 
z
" style="fill:#ffffff;"/>
   </g>
   <g id="matplotlib.axis_1">
    <g id="xtick_1">
     <g id="line2d_1">
      <path clip-path="url(#p065009f1b3)" d="M 171.255564 126 
L 171.255564 17.28 
" style="fill:none;opacity:0.4;stroke:#b0b0b0;stroke-dasharray:2.96,1.28;stroke-dashoffset:0;stroke-width:0.8;"/>
     </g>
     <g id="line2d_2">
      <defs>
       <path d="M 0 0 
L 0 -3.5 
" id="mca81f75284" style="stroke:#000000;stroke-width:0.8;"/>
      </defs>
      <g>
       <use style="stroke:#000000;stroke-width:0.8;" x="171.255564" xlink:href="#mca81f75284" y="126"/>
      </g>
     </g>
     <g id="line2d_3">
      <defs>
       <path d="M 0 0 
L 0 3.5 
" id="mde5d1e0a89" style="stroke:#000000;stroke-width:0.8;"/>
      </defs>
      <g>
       <use style="stroke:#000000;stroke-width:0.8;" x="171.255564" xlink:href="#mde5d1e0a89" y="17.28"/>
      </g>
     </g>
     <g id="text_1">
      <text style="font-family:DejaVu Sans;font-size:10px;font-style:normal;font-weight:normal;text-anchor:middle;" transform="rotate(-0, 171.255564, 137.098437)" x="171.255564" y="137.098437">10</text>
     </g>
    </g>
    <g id="xtick_2">
     <g id="line2d_4">
      <path clip-path="url(#p065009f1b3)" d="M 254.892886 126 
L 254.892886 17.28 
" style="fill:none;opacity:0.4;stroke:#b0b0b0;stroke-dasharray:2.96,1.28;stroke-dashoffset:0;stroke-width:0.8;"/>
     </g>
     <g id="line2d_5">
      <g>
       <use style="stroke:#000000;stroke-width:0.8;" x="254.892886" xlink:href="#mca81f75284" y="126"/>
      </g>
     </g>
     <g id="line2d_6">
      <g>
       <use style="stroke:#000000;stroke-width:0.8;" x="254.892886" xlink:href="#mde5d1e0a89" y="17.28"/>
      </g>
     </g>
     <g id="text_2">
      <text style="font-family:DejaVu Sans;font-size:10px;font-style:normal;font-weight:normal;text-anchor:middle;" transform="rotate(-0, 254.892886, 137.098437)" x="254.892886" y="137.098437">20</text>
     </g>
    </g>
    <g id="xtick_3">
     <g id="line2d_7">
      <path clip-path="url(#p065009f1b3)" d="M 338.530208 126 
L 338.530208 17.28 
" style="fill:none;opacity:0.4;stroke:#b0b0b0;stroke-dasharray:2.96,1.28;stroke-dashoffset:0;stroke-width:0.8;"/>
     </g>
     <g id="line2d_8">
      <g>
       <use style="stroke:#000000;stroke-width:0.8;" x="338.530208" xlink:href="#mca81f75284" y="126"/>
      </g>
     </g>
     <g id="line2d_9">
      <g>
       <use style="stroke:#000000;stroke-width:0.8;" x="338.530208" xlink:href="#mde5d1e0a89" y="17.28"/>
      </g>
     </g>
     <g id="text_3">
      <text style="font-family:DejaVu Sans;font-size:10px;font-style:normal;font-weight:normal;text-anchor:middle;" transform="rotate(-0, 338.530208, 137.098437)" x="338.530208" y="137.098437">30</text>
     </g>
    </g>
    <g id="xtick_4">
     <g id="line2d_10">
      <path clip-path="url(#p065009f1b3)" d="M 422.16753 126 
L 422.16753 17.28 
" style="fill:none;opacity:0.4;stroke:#b0b0b0;stroke-dasharray:2.96,1.28;stroke-dashoffset:0;stroke-width:0.8;"/>
     </g>
     <g id="line2d_11">
      <g>
       <use style="stroke:#000000;stroke-width:0.8;" x="422.16753" xlink:href="#mca81f75284" y="126"/>
      </g>
     </g>
     <g id="line2d_12">
      <g>
       <use style="stroke:#000000;stroke-width:0.8;" x="422.16753" xlink:href="#mde5d1e0a89" y="17.28"/>
      </g>
     </g>
     <g id="text_4">
      <text style="font-family:DejaVu Sans;font-size:10px;font-style:normal;font-weight:normal;text-anchor:middle;" transform="rotate(-0, 422.16753, 137.098437)" x="422.16753" y="137.098437">40</text>
     </g>
    </g>
    <g id="xtick_5">
     <g id="line2d_13">
      <path clip-path="url(#p065009f1b3)" d="M 505.804852 126 
L 505.804852 17.28 
" style="fill:none;opacity:0.4;stroke:#b0b0b0;stroke-dasharray:2.96,1.28;stroke-dashoffset:0;stroke-width:0.8;"/>
     </g>
     <g id="line2d_14">
      <g>
       <use style="stroke:#000000;stroke-width:0.8;" x="505.804852" xlink:href="#mca81f75284" y="126"/>
      </g>
     </g>
     <g id="line2d_15">
      <g>
       <use style="stroke:#000000;stroke-width:0.8;" x="505.804852" xlink:href="#mde5d1e0a89" y="17.28"/>
      </g>
     </g>
     <g id="text_5">
      <text style="font-family:DejaVu Sans;font-size:10px;font-style:normal;font-weight:normal;text-anchor:middle;" transform="rotate(-0, 505.804852, 137.098437)" x="505.804852" y="137.098437">50</text>
     </g>
    </g>
    <g id="xtick_6">
     <g id="line2d_16">
      <path clip-path="url(#p065009f1b3)" d="M 589.442175 126 
L 589.442175 17.28 
" style="fill:none;opacity:0.4;stroke:#b0b0b0;stroke-dasharray:2.96,1.28;stroke-dashoffset:0;stroke-width:0.8;"/>
     </g>
     <g id="line2d_17">
      <g>
       <use style="stroke:#000000;stroke-width:0.8;" x="589.442175" xlink:href="#mca81f75284" y="126"/>
      </g>
     </g>
     <g id="line2d_18">
      <g>
       <use style="stroke:#000000;stroke-width:0.8;" x="589.442175" xlink:href="#mde5d1e0a89" y="17.28"/>
      </g>
     </g>
     <g id="text_6">
      <text style="font-family:DejaVu Sans;font-size:10px;font-style:normal;font-weight:normal;text-anchor:middle;" transform="rotate(-0, 589.442175, 137.098437)" x="589.442175" y="137.098437">60</text>
     </g>
    </g>
    <g id="text_7">
     <text style="font-family:DejaVu Sans;font-size:10px;font-style:normal;font-weight:normal;text-anchor:middle;" transform="rotate(-0, 369, 150.776563)" x="369" y="150.776563">f1-score</text>
    </g>
   </g>
   <g id="matplotlib.axis_2">
    <g id="ytick_1">
     <g id="line2d_19">
      <path clip-path="url(#p065009f1b3)" d="M 90 106.886069 
L 648 106.886069 
" style="fill:none;opacity:0.4;stroke:#b0b0b0;stroke-dasharray:2.96,1.28;stroke-dashoffset:0;stroke-width:0.8;"/>
     </g>
     <g id="line2d_20">
      <defs>
       <path d="M 0 0 
L 3.5 0 
" id="mb72450e093" style="stroke:#000000;stroke-width:0.8;"/>
      </defs>
      <g>
       <use style="stroke:#000000;stroke-width:0.8;" x="90" xlink:href="#mb72450e093" y="106.886069"/>
      </g>
     </g>
     <g id="text_8">
      <text style="font-family:DejaVu Sans;font-size:10px;font-style:normal;font-weight:normal;text-anchor:end;" transform="rotate(-0, 86.5, 110.685288)" x="86.5" y="110.685288">−2</text>
     </g>
     <g id="text_9">
      <text style="font-family:DejaVu Sans;font-size:10px;font-style:normal;font-weight:normal;text-anchor:start;" transform="rotate(-0, 651.5, 110.685288)" x="651.5" y="110.685288">−2</text>
     </g>
    </g>
    <g id="ytick_2">
     <g id="line2d_21">
      <path clip-path="url(#p065009f1b3)" d="M 90 72.442197 
L 648 72.442197 
" style="fill:none;opacity:0.4;stroke:#b0b0b0;stroke-dasharray:2.96,1.28;stroke-dashoffset:0;stroke-width:0.8;"/>
     </g>
     <g id="line2d_22">
      <g>
       <use style="stroke:#000000;stroke-width:0.8;" x="90" xlink:href="#mb72450e093" y="72.442197"/>
      </g>
     </g>
     <g id="text_10">
      <text style="font-family:DejaVu Sans;font-size:10px;font-style:normal;font-weight:normal;text-anchor:end;" transform="rotate(-0, 86.5, 76.241416)" x="86.5" y="76.241416">0</text>
     </g>
     <g id="text_11">
      <text style="font-family:DejaVu Sans;font-size:10px;font-style:normal;font-weight:normal;text-anchor:start;" transform="rotate(-0, 651.5, 76.241416)" x="651.5" y="76.241416">0</text>
     </g>
    </g>
    <g id="ytick_3">
     <g id="line2d_23">
      <path clip-path="url(#p065009f1b3)" d="M 90 37.998325 
L 648 37.998325 
" style="fill:none;opacity:0.4;stroke:#b0b0b0;stroke-dasharray:2.96,1.28;stroke-dashoffset:0;stroke-width:0.8;"/>
     </g>
     <g id="line2d_24">
      <g>
       <use style="stroke:#000000;stroke-width:0.8;" x="90" xlink:href="#mb72450e093" y="37.998325"/>
      </g>
     </g>
     <g id="text_12">
      <text style="font-family:DejaVu Sans;font-size:10px;font-style:normal;font-weight:normal;text-anchor:end;" transform="rotate(-0, 86.5, 41.797544)" x="86.5" y="41.797544">2</text>
     </g>
     <g id="text_13">
      <text style="font-family:DejaVu Sans;font-size:10px;font-style:normal;font-weight:normal;text-anchor:start;" transform="rotate(-0, 651.5, 41.797544)" x="651.5" y="41.797544">2</text>
     </g>
    </g>
    <g id="text_14">
     <text style="font-family:DejaVu Sans;font-size:10px;font-style:normal;font-weight:normal;text-anchor:middle;" transform="rotate(-90, 65.678125, 71.64)" x="65.678125" y="71.64">Relative Bias (\%)</text>
    </g>
   </g>
   <g id="line2d_25">
    <path clip-path="url(#p065009f1b3)" d="M 115.363636 76.515857 
L 138.261944 86.794984 
L 138.596226 59.058579 
L 140.601917 57.511897 
L 140.936199 99.804192 
L 141.939044 68.820584 
L 143.777595 56.896781 
L 147.454695 115.725213 
L 154.641755 75.125785 
L 155.143178 64.75065 
L 156.146024 105.07337 
L 156.981728 45.483503 
L 156.981728 60.127933 
L 157.650292 22.221818 
L 158.653138 87.370465 
L 159.15456 95.692821 
L 172.024412 88.268886 
L 172.191553 72.90988 
L 174.197244 74.742013 
L 177.03864 93.718733 
L 179.712895 83.81601 
L 180.882882 103.550887 
L 181.050022 64.282131 
L 183.389996 72.050383 
L 183.724277 72.056541 
L 185.562828 64.508601 
L 186.398532 94.299379 
L 186.398532 67.757242 
L 187.067096 73.33128 
L 187.568519 80.27127 
L 190.409915 86.354712 
L 191.078478 62.270905 
L 191.245619 63.968628 
L 191.747042 85.691508 
L 193.585592 104.322632 
L 193.752733 58.89259 
L 194.421297 84.01998 
L 197.262693 54.382635 
L 200.27123 115.444621 
L 204.449753 62.71463 
L 205.118317 61.290871 
L 206.121162 58.784998 
L 207.625431 45.12012 
L 208.126853 103.259473 
L 208.795417 71.097931 
L 210.299685 98.157836 
L 210.299685 69.105967 
L 210.968249 100.758646 
L 213.642504 72.503088 
L 213.976786 61.485641 
L 216.316759 83.212787 
L 219.325296 89.860876 
L 219.659578 63.705509 
L 219.826719 66.305448 
L 221.498128 86.683075 
L 221.498128 75.46104 
L 223.838101 78.8625 
L 224.005242 69.468532 
L 225.175228 98.321114 
L 225.342369 78.565285 
L 226.679497 53.095932 
L 227.18092 51.404654 
L 227.849483 82.091404 
L 228.183765 59.918828 
L 231.192302 63.146327 
L 232.195148 49.404712 
L 232.529429 33.054401 
L 234.36798 50.225889 
L 234.869402 99.665664 
L 235.705107 51.989301 
L 236.373671 46.394415 
L 237.710798 79.919489 
L 239.047926 65.579865 
L 239.549349 32.168467 
L 241.053617 97.279228 
L 241.387899 72.768593 
L 241.722181 33.764209 
L 242.892167 96.677483 
L 243.727872 66.711903 
L 244.062154 68.488418 
L 244.396436 94.845559 
L 245.23214 78.081647 
L 246.736409 65.643954 
L 246.903549 103.51736 
L 247.739254 30.275274 
L 247.739254 83.852831 
L 248.7421 88.569922 
L 250.079227 83.804794 
L 250.079227 29.093266 
L 250.58065 97.696585 
L 250.58065 69.733532 
L 250.914932 70.104967 
L 254.25775 59.893227 
L 254.592032 75.345661 
L 256.096301 89.25988 
L 257.266287 28.01836 
L 257.934851 89.299094 
L 258.603415 113.687861 
L 259.439119 43.276175 
L 259.439119 117.591515 
L 260.776247 73.092089 
L 261.27767 105.626236 
L 262.280515 68.281195 
L 262.949079 111.010592 
L 263.784784 66.589571 
L 264.620488 53.375742 
L 264.95477 98.115717 
L 265.289052 33.884948 
L 268.130448 98.127788 
L 269.968998 81.374907 
L 270.637562 80.46407 
L 270.804703 45.388802 
L 272.14183 99.89694 
L 272.14183 108.292783 
L 277.824622 89.697415 
L 277.824622 107.791183 
L 278.660326 101.491547 
L 280.164595 67.166423 
L 280.331736 43.234628 
L 280.331736 76.123536 
L 280.666018 81.735495 
L 280.666018 73.556816 
L 281.0003 56.517393 
L 281.334581 69.556482 
L 281.501722 62.248679 
L 281.501722 108.103528 
L 282.170286 106.951949 
L 285.011682 94.675897 
L 285.178823 87.620834 
L 286.850232 67.205593 
L 287.685937 101.131873 
L 289.357346 65.207734 
L 291.195896 98.400628 
L 291.86446 66.598855 
L 292.867306 106.184179 
L 293.034447 47.135039 
L 293.535869 88.010308 
L 295.541561 66.450824 
L 295.875842 75.998721 
L 297.045829 87.946743 
L 297.21297 115.877537 
L 297.21297 71.829538 
L 298.382956 90.568834 
L 299.385802 72.112958 
L 299.720084 80.30565 
L 301.725775 60.152772 
L 302.227198 98.351217 
L 304.232889 96.401285 
L 304.232889 58.466612 
L 304.567171 104.164135 
L 305.402876 41.054648 
L 308.244271 96.504054 
L 309.581399 75.511605 
L 310.249963 108.00661 
L 310.417103 53.137259 
L 310.584244 40.354476 
L 310.751385 63.292643 
L 312.924217 80.006809 
L 313.091358 86.188367 
L 315.932754 56.639416 
L 316.099895 92.769498 
L 319.776996 121.058182 
L 320.779841 86.078674 
L 320.946982 108.663017 
L 322.952673 80.246968 
L 323.119814 56.617913 
L 324.289801 51.833583 
L 326.462633 39.295514 
L 326.462633 93.120606 
L 327.632619 94.512797 
L 329.638311 59.950498 
L 330.306874 65.487464 
L 331.142579 54.676556 
L 331.811143 88.907545 
L 332.646847 85.132952 
L 333.14827 78.942617 
L 333.649693 80.412356 
L 335.655384 99.664451 
L 336.992512 83.446928 
L 337.159653 64.09986 
L 338.663921 81.661728 
L 338.663921 99.605965 
L 340.33533 61.653288 
L 340.836753 88.428696 
L 341.003894 104.357935 
L 346.519545 91.812675 
L 346.686686 67.864613 
L 347.188108 55.609594 
L 347.52239 100.843573 
L 347.52239 118.406606 
L 347.856672 81.642907 
L 349.695222 47.514325 
L 354.70945 46.960123 
L 355.043732 104.236454 
L 355.378014 45.494629 
L 356.046578 115.293592 
L 356.38086 45.56967 
L 356.882282 69.026053 
L 357.216564 95.43589 
L 359.055115 96.58462 
L 359.222256 79.211922 
L 359.556537 65.939456 
L 359.556537 82.931457 
L 359.890819 51.151966 
L 361.395088 46.892335 
L 362.063651 110.710106 
L 362.565074 98.114085 
L 363.066497 89.737726 
L 363.400779 91.550916 
L 363.735061 95.736696 
L 363.902202 83.365431 
L 364.905047 55.372568 
L 365.239329 103.242455 
L 365.40647 80.497207 
L 365.907893 39.953213 
L 366.910738 41.824593 
L 368.415007 71.059985 
L 369.417852 101.843841 
L 369.752134 100.986383 
L 370.086416 59.97994 
L 370.253557 95.173822 
L 370.253557 77.564575 
L 370.75498 72.453225 
L 371.423544 75.704308 
L 371.757825 98.778096 
L 372.092107 87.171496 
L 372.259248 57.850153 
L 372.426389 69.286818 
L 372.760671 81.275881 
L 372.927812 96.601001 
L 373.763517 91.337599 
L 373.930657 56.633543 
L 373.930657 63.101664 
L 374.264939 81.607897 
L 374.599221 82.618188 
L 375.267785 96.367879 
L 375.267785 103.05463 
L 377.106335 111.834091 
L 377.273476 67.987329 
L 378.276322 55.40158 
L 378.944885 42.544287 
L 379.112026 43.786321 
L 380.449154 88.373896 
L 380.449154 85.00472 
L 380.616295 105.514335 
L 380.616295 93.076005 
L 380.616295 38.255283 
L 380.950577 78.69948 
L 381.451999 42.622166 
L 381.786281 94.153042 
L 382.454845 75.761179 
L 382.956268 68.816053 
L 383.457691 59.154957 
L 383.791972 62.939439 
L 383.959113 67.997344 
L 384.293395 98.600157 
L 384.961959 51.879286 
L 384.961959 83.056149 
L 385.630523 98.405219 
L 386.800509 90.68878 
L 386.800509 72.971267 
L 387.301932 95.073874 
L 387.469073 39.893689 
L 388.639059 77.459359 
L 388.973341 65.841358 
L 389.809046 49.979381 
L 390.979032 76.588435 
L 391.647596 70.004989 
L 391.814737 91.185058 
L 391.981878 57.344421 
L 392.31616 96.920327 
L 394.15471 63.870094 
L 394.488992 55.839867 
L 394.823274 88.847157 
L 395.157556 44.246579 
L 395.491838 93.792439 
L 395.99326 91.99712 
L 396.494683 116.004029 
L 396.996106 106.883689 
L 397.330388 33.728926 
L 398.333233 89.724712 
L 398.500374 84.229478 
L 401.007488 100.188551 
L 401.34177 75.046163 
L 401.508911 97.936012 
L 401.508911 73.698316 
L 403.01318 72.519679 
L 403.01318 104.885452 
L 403.180321 61.637357 
L 404.016025 100.307459 
L 404.517448 78.546219 
L 404.684589 97.779878 
L 405.186012 47.668349 
L 405.186012 50.183448 
L 405.687434 85.547274 
L 405.854575 62.770806 
L 406.021716 88.051998 
L 407.024562 87.071153 
L 407.693126 67.691744 
L 408.027408 68.654271 
L 408.027408 97.444114 
L 408.194548 104.216294 
L 409.197394 42.770944 
L 409.197394 87.744571 
L 409.197394 86.963084 
L 409.698817 78.39863 
L 409.865958 57.487081 
L 411.035944 96.522322 
L 411.704508 60.55466 
L 411.704508 79.292727 
L 411.871649 61.170938 
L 412.03879 93.753848 
L 412.03879 47.656774 
L 412.205931 102.952537 
L 412.707354 59.78121 
L 413.041635 74.488269 
L 413.375917 72.230654 
L 414.044481 90.094087 
L 414.044481 87.452799 
L 414.211622 61.948443 
L 414.713045 80.686638 
L 415.381609 105.977702 
L 415.548749 59.185033 
L 415.548749 101.061203 
L 416.217313 75.894878 
L 416.384454 95.928911 
L 417.220159 98.090448 
L 417.888722 80.506724 
L 418.223004 79.693461 
L 418.390145 88.385857 
L 418.557286 58.181788 
L 419.22585 76.477752 
L 419.392991 90.958259 
L 420.228696 84.17485 
L 420.395836 99.260853 
L 422.067246 66.588105 
L 422.067246 66.679349 
L 423.738655 99.170428 
L 423.738655 94.284036 
L 424.741501 94.847383 
L 425.242923 69.034895 
L 425.410064 69.950803 
L 425.577205 67.491598 
L 426.078628 65.740503 
L 426.078628 95.359441 
L 426.078628 84.539362 
L 426.41291 54.610945 
L 427.081474 57.558153 
L 427.415756 87.50407 
L 427.750037 85.961203 
L 427.917178 57.492182 
L 428.084319 63.424296 
L 428.084319 56.486766 
L 429.087165 91.652178 
L 429.087165 52.156344 
L 429.421447 50.98111 
L 429.755729 91.291611 
L 430.09001 97.502158 
L 430.925715 69.849748 
L 430.925715 70.804296 
L 431.594279 72.85242 
L 431.76142 89.32054 
L 432.597124 98.999072 
L 433.098547 89.413239 
L 433.265688 68.333916 
L 434.602816 74.430569 
L 434.602816 76.552304 
L 434.769957 92.91578 
L 434.769957 92.520624 
L 435.772802 58.282567 
L 436.608507 62.221374 
L 437.10993 86.619539 
L 438.279916 72.131384 
L 438.279916 99.955674 
L 438.279916 58.619495 
L 438.781339 81.778893 
L 438.781339 90.099625 
L 438.94848 101.983663 
L 439.115621 70.016213 
L 439.617044 81.261424 
L 440.118466 69.746452 
L 440.118466 79.567379 
L 440.285607 68.893121 
L 440.452748 73.702806 
L 441.288453 75.500995 
L 441.789876 93.994074 
L 442.458439 73.992329 
L 442.62558 51.346431 
L 442.62558 75.669985 
L 442.959862 96.98909 
L 443.795567 73.624584 
L 444.631272 91.763633 
L 445.132694 91.883937 
L 445.132694 95.161028 
L 446.13554 62.16559 
L 446.302681 79.691088 
L 446.636963 69.044601 
L 447.639808 79.691482 
L 447.806949 63.945056 
L 447.806949 86.879669 
L 448.141231 62.974345 
L 448.141231 76.001876 
L 448.475513 79.444027 
L 449.478359 57.78738 
L 450.146922 85.671754 
L 451.48405 59.488075 
L 451.985473 107.798328 
L 452.152613 91.754343 
L 452.152613 94.508277 
L 454.492586 54.874334 
L 455.328291 67.4781 
L 455.829714 90.020592 
L 456.9997 76.504839 
L 457.333982 75.305694 
L 457.501123 77.624913 
L 457.835405 107.447266 
L 459.005392 84.6558 
L 459.339674 83.130097 
L 459.673955 68.607769 
L 459.841096 111.91466 
L 460.342519 67.723725 
L 460.676801 74.318054 
L 461.679647 63.593975 
L 461.679647 61.212432 
L 462.515351 68.373616 
L 462.515351 61.776137 
L 463.016774 71.85461 
L 463.351056 84.854442 
L 463.685338 74.276167 
L 463.852479 73.478399 
L 464.353901 74.386205 
L 464.521042 77.179269 
L 464.521042 47.210054 
L 465.691029 64.132487 
L 466.192452 102.524259 
L 466.359593 79.753138 
L 466.693874 111.557054 
L 467.362438 106.012572 
L 468.031002 66.682958 
L 468.699566 68.455854 
L 469.368129 75.043232 
L 470.872398 96.613496 
L 471.540962 82.272471 
L 471.708102 63.719561 
L 472.209525 63.428097 
L 473.546653 85.912845 
L 473.880935 62.732669 
L 473.880935 71.665062 
L 474.549498 80.729006 
L 474.88378 51.004467 
L 475.385203 72.343563 
L 475.385203 71.224826 
L 475.552344 70.769293 
L 476.72233 66.74909 
L 476.889471 96.64941 
L 477.223753 71.517188 
L 478.059458 78.119453 
L 478.226599 75.799717 
L 478.728022 75.213296 
L 478.895162 86.977429 
L 478.895162 77.740806 
L 479.396585 61.747376 
L 479.563726 81.703887 
L 480.399431 81.289353 
L 480.900854 62.5046 
L 481.402276 76.001421 
L 481.569417 75.837113 
L 481.903699 44.243921 
L 482.739404 99.432418 
L 483.407968 71.217412 
L 483.407968 63.242649 
L 483.74225 87.078703 
L 484.076531 88.533132 
L 484.577954 81.237279 
L 484.745095 84.127646 
L 485.079377 45.283548 
L 485.747941 70.800208 
L 486.249363 108.741319 
L 486.917927 104.825977 
L 486.917927 71.613188 
L 487.252209 72.656215 
L 487.753632 54.206203 
L 488.422196 86.965593 
L 488.923618 104.085427 
L 488.923618 62.376417 
L 489.090759 66.019374 
L 489.759323 71.014687 
L 489.926464 76.101809 
L 490.093605 61.122553 
L 490.427887 83.918875 
L 491.430732 72.289951 
L 491.597873 72.620831 
L 491.932155 90.001941 
L 491.932155 77.866818 
L 493.269283 80.764263 
L 493.436424 60.982917 
L 493.436424 62.593187 
L 493.937846 70.752465 
L 494.104987 81.489347 
L 495.442115 72.477758 
L 495.776397 56.894206 
L 495.776397 77.327711 
L 496.277819 82.906149 
L 496.946383 55.216931 
L 496.946383 71.907868 
L 497.280665 67.09462 
L 498.283511 82.482684 
L 498.952074 71.561104 
L 498.952074 96.884769 
L 499.95492 85.115103 
L 500.623484 67.53158 
L 501.124906 86.992139 
L 501.292047 57.480846 
L 501.292047 106.330998 
L 501.459188 81.058592 
L 501.79347 86.615486 
L 501.960611 105.29472 
L 502.796316 70.620758 
L 503.297739 61.581968 
L 503.297739 69.215348 
L 503.966302 101.255946 
L 504.133443 84.407528 
L 504.969148 100.819124 
L 505.637712 75.068883 
L 505.804852 74.458717 
L 506.974839 84.244994 
L 507.14198 80.734047 
L 507.977685 76.755832 
L 508.311966 73.76503 
L 508.813389 59.151852 
L 508.98053 100.313748 
L 509.314812 102.766681 
L 509.481953 100.762522 
L 509.649094 104.016233 
L 510.986221 76.706468 
L 511.320503 66.784091 
L 511.654785 80.257229 
L 511.989067 65.31483 
L 511.989067 80.615184 
L 512.323349 55.236339 
L 512.49049 78.414356 
L 512.824772 99.493306 
L 513.660476 55.696534 
L 514.161899 63.936593 
L 516.16759 65.522893 
L 516.501872 70.667796 
L 516.836154 92.13312 
L 518.674704 76.990287 
L 518.674704 79.526099 
L 519.008986 96.783075 
L 519.176127 68.558949 
L 519.67755 74.406006 
L 520.011832 67.964002 
L 521.5161 79.549942 
L 521.850382 95.177705 
L 522.351805 78.306235 
L 522.351805 69.428017 
L 522.518946 75.986711 
L 522.686087 100.462816 
L 524.357496 69.334561 
L 524.691778 60.869843 
L 525.02606 82.11095 
L 525.193201 68.858904 
L 525.694623 75.609395 
L 526.530328 61.527089 
L 527.031751 81.84678 
L 527.031751 68.363147 
L 527.198892 58.532777 
L 527.700315 99.959782 
L 527.867455 78.050275 
L 528.368878 76.209885 
L 529.037442 60.359584 
L 529.538865 71.336922 
L 530.374569 87.162755 
L 530.875992 94.435943 
L 532.714542 80.418854 
L 535.054516 102.062598 
L 535.555938 84.926728 
L 536.224502 81.053687 
L 536.558784 58.384481 
L 537.060207 79.812324 
L 537.561629 79.406363 
L 538.731616 94.243745 
L 539.734462 66.607302 
L 540.570166 69.128688 
L 540.737307 80.578363 
L 541.405871 83.874464 
L 543.244421 94.824717 
L 543.578703 70.912597 
L 543.745844 73.106153 
L 545.918676 76.507598 
L 547.088663 67.825381 
L 547.255804 72.667514 
L 547.422944 92.608307 
L 548.091508 76.285617 
L 548.927213 87.671349 
L 549.261495 88.290415 
L 549.261495 73.644827 
L 550.431481 64.988346 
L 550.765763 77.901658 
L 551.434327 71.942227 
L 552.102891 90.416785 
L 552.771454 79.891157 
L 554.442864 78.176004 
L 556.281414 71.408326 
L 557.117118 71.227886 
L 558.287105 83.313582 
L 558.788528 76.461734 
L 559.457092 77.924768 
L 560.96136 82.157663 
L 561.295642 74.112301 
L 562.131346 85.423374 
L 562.967051 75.853459 
L 562.967051 81.057392 
L 563.134192 74.746689 
L 563.468474 75.209044 
L 564.304179 74.07731 
L 567.145574 83.633624 
L 567.312715 77.458372 
L 568.984125 76.653383 
L 569.819829 67.911135 
L 572.828366 76.466398 
L 572.828366 74.62132 
L 572.995507 75.681848 
L 574.666916 67.848679 
L 575.502621 72.305876 
L 575.502621 80.495805 
L 577.842594 68.185299 
L 578.176876 77.42164 
L 579.346862 74.578611 
L 579.681144 73.138846 
L 580.182567 78.244476 
L 581.018272 72.625118 
L 581.686835 74.943093 
L 582.355399 77.677882 
L 582.689681 70.462976 
L 583.023963 84.595785 
L 583.023963 73.143305 
L 583.525386 80.984738 
L 583.692527 76.240746 
L 583.692527 76.977701 
L 584.36109 76.586169 
L 584.695372 74.244949 
L 591.54815 75.882268 
L 591.882432 73.947442 
L 592.049573 75.842619 
L 593.386701 73.23994 
L 595.893815 74.131497 
L 597.230942 74.300728 
L 598.902351 73.178205 
L 599.403774 73.065548 
L 599.738056 80.268906 
L 600.239479 74.357481 
L 602.579452 73.475562 
L 602.913734 72.454864 
L 603.582297 77.613968 
L 603.916579 78.579793 
L 605.92227 75.987805 
L 606.423693 77.352344 
L 607.426539 76.686381 
L 607.927962 75.853713 
L 608.262244 73.397723 
L 610.936498 73.84871 
L 616.285008 74.016334 
L 616.61929 74.559725 
L 620.964954 75.691835 
L 621.299236 75.322932 
L 622.636364 74.019644 
L 622.636364 74.019644 
" style="fill:none;stroke:#1f77b4;stroke-linecap:square;stroke-width:1.5;"/>
   </g>
   <g id="patch_3">
    <path d="M 90 126 
L 90 17.28 
" style="fill:none;stroke:#000000;stroke-linecap:square;stroke-linejoin:miter;stroke-width:0.8;"/>
   </g>
   <g id="patch_4">
    <path d="M 648 126 
L 648 17.28 
" style="fill:none;stroke:#000000;stroke-linecap:square;stroke-linejoin:miter;stroke-width:0.8;"/>
   </g>
   <g id="patch_5">
    <path d="M 90 126 
L 648 126 
" style="fill:none;stroke:#000000;stroke-linecap:square;stroke-linejoin:miter;stroke-width:0.8;"/>
   </g>
   <g id="patch_6">
    <path d="M 90 17.28 
L 648 17.28 
" style="fill:none;stroke:#000000;stroke-linecap:square;stroke-linejoin:miter;stroke-width:0.8;"/>
   </g>
  </g>
  <g id="text_15">
   <text style="font-family:DejaVu Sans;font-size:12px;font-style:normal;font-weight:normal;text-anchor:middle;" transform="rotate(-0, 360, 11.998125)" x="360" y="11.998125">5-Folds Meta-Segmented Cross-Validation</text>
  </g>
 </g>
 <defs>
  <clipPath id="p065009f1b3">
   <rect height="108.72" width="558" x="90" y="17.28"/>
  </clipPath>
 </defs>
</svg>
