<?xml version="1.0" encoding="utf-8" standalone="no"?>
<!DOCTYPE svg PUBLIC "-//W3C//DTD SVG 1.1//EN"
  "http://www.w3.org/Graphics/SVG/1.1/DTD/svg11.dtd">
<!-- Created with matplotlib (http://matplotlib.org/) -->
<svg height="144pt" version="1.1" viewBox="0 0 720 144" width="720pt" xmlns="http://www.w3.org/2000/svg" xmlns:xlink="http://www.w3.org/1999/xlink">
 <defs>
  <style type="text/css">
*{stroke-linecap:butt;stroke-linejoin:round;}
  </style>
 </defs>
 <g id="figure_1">
  <g id="patch_1">
   <path d="M 0 144 
L 720 144 
L 720 0 
L 0 0 
z
" style="fill:#ffffff;"/>
  </g>
  <g id="axes_1">
   <g id="patch_2">
    <path d="M 90 126 
L 648 126 
L 648 17.28 
L 90 17.28 
z
" style="fill:#ffffff;"/>
   </g>
   <g id="matplotlib.axis_1">
    <g id="xtick_1">
     <g id="line2d_1">
      <path clip-path="url(#p1870affd7f)" d="M 208.929579 126 
L 208.929579 17.28 
" style="fill:none;opacity:0.4;stroke:#b0b0b0;stroke-dasharray:2.96,1.28;stroke-dashoffset:0;stroke-width:0.8;"/>
     </g>
     <g id="line2d_2">
      <defs>
       <path d="M 0 0 
L 0 -3.5 
" id="mbda419a74e" style="stroke:#000000;stroke-width:0.8;"/>
      </defs>
      <g>
       <use style="stroke:#000000;stroke-width:0.8;" x="208.929579" xlink:href="#mbda419a74e" y="126"/>
      </g>
     </g>
     <g id="line2d_3">
      <defs>
       <path d="M 0 0 
L 0 3.5 
" id="m96343c1ded" style="stroke:#000000;stroke-width:0.8;"/>
      </defs>
      <g>
       <use style="stroke:#000000;stroke-width:0.8;" x="208.929579" xlink:href="#m96343c1ded" y="17.28"/>
      </g>
     </g>
     <g id="text_1">
      <text style="font-family:DejaVu Sans;font-size:10px;font-style:normal;font-weight:normal;text-anchor:middle;" transform="rotate(-0, 208.929579, 137.098437)" x="208.929579" y="137.098437">20</text>
     </g>
    </g>
    <g id="xtick_2">
     <g id="line2d_4">
      <path clip-path="url(#p1870affd7f)" d="M 330.230393 126 
L 330.230393 17.28 
" style="fill:none;opacity:0.4;stroke:#b0b0b0;stroke-dasharray:2.96,1.28;stroke-dashoffset:0;stroke-width:0.8;"/>
     </g>
     <g id="line2d_5">
      <g>
       <use style="stroke:#000000;stroke-width:0.8;" x="330.230393" xlink:href="#mbda419a74e" y="126"/>
      </g>
     </g>
     <g id="line2d_6">
      <g>
       <use style="stroke:#000000;stroke-width:0.8;" x="330.230393" xlink:href="#m96343c1ded" y="17.28"/>
      </g>
     </g>
     <g id="text_2">
      <text style="font-family:DejaVu Sans;font-size:10px;font-style:normal;font-weight:normal;text-anchor:middle;" transform="rotate(-0, 330.230393, 137.098437)" x="330.230393" y="137.098437">40</text>
     </g>
    </g>
    <g id="xtick_3">
     <g id="line2d_7">
      <path clip-path="url(#p1870affd7f)" d="M 451.531206 126 
L 451.531206 17.28 
" style="fill:none;opacity:0.4;stroke:#b0b0b0;stroke-dasharray:2.96,1.28;stroke-dashoffset:0;stroke-width:0.8;"/>
     </g>
     <g id="line2d_8">
      <g>
       <use style="stroke:#000000;stroke-width:0.8;" x="451.531206" xlink:href="#mbda419a74e" y="126"/>
      </g>
     </g>
     <g id="line2d_9">
      <g>
       <use style="stroke:#000000;stroke-width:0.8;" x="451.531206" xlink:href="#m96343c1ded" y="17.28"/>
      </g>
     </g>
     <g id="text_3">
      <text style="font-family:DejaVu Sans;font-size:10px;font-style:normal;font-weight:normal;text-anchor:middle;" transform="rotate(-0, 451.531206, 137.098437)" x="451.531206" y="137.098437">60</text>
     </g>
    </g>
    <g id="xtick_4">
     <g id="line2d_10">
      <path clip-path="url(#p1870affd7f)" d="M 572.83202 126 
L 572.83202 17.28 
" style="fill:none;opacity:0.4;stroke:#b0b0b0;stroke-dasharray:2.96,1.28;stroke-dashoffset:0;stroke-width:0.8;"/>
     </g>
     <g id="line2d_11">
      <g>
       <use style="stroke:#000000;stroke-width:0.8;" x="572.83202" xlink:href="#mbda419a74e" y="126"/>
      </g>
     </g>
     <g id="line2d_12">
      <g>
       <use style="stroke:#000000;stroke-width:0.8;" x="572.83202" xlink:href="#m96343c1ded" y="17.28"/>
      </g>
     </g>
     <g id="text_4">
      <text style="font-family:DejaVu Sans;font-size:10px;font-style:normal;font-weight:normal;text-anchor:middle;" transform="rotate(-0, 572.83202, 137.098437)" x="572.83202" y="137.098437">80</text>
     </g>
    </g>
    <g id="text_5">
     <text style="font-family:DejaVu Sans;font-size:10px;font-style:normal;font-weight:normal;text-anchor:middle;" transform="rotate(-0, 369, 150.776563)" x="369" y="150.776563">f1-score</text>
    </g>
   </g>
   <g id="matplotlib.axis_2">
    <g id="ytick_1">
     <g id="line2d_13">
      <path clip-path="url(#p1870affd7f)" d="M 90 112.712992 
L 648 112.712992 
" style="fill:none;opacity:0.4;stroke:#b0b0b0;stroke-dasharray:2.96,1.28;stroke-dashoffset:0;stroke-width:0.8;"/>
     </g>
     <g id="line2d_14">
      <defs>
       <path d="M 0 0 
L 3.5 0 
" id="m796399f34e" style="stroke:#000000;stroke-width:0.8;"/>
      </defs>
      <g>
       <use style="stroke:#000000;stroke-width:0.8;" x="90" xlink:href="#m796399f34e" y="112.712992"/>
      </g>
     </g>
     <g id="text_6">
      <text style="font-family:DejaVu Sans;font-size:10px;font-style:normal;font-weight:normal;text-anchor:end;" transform="rotate(-0, 86.5, 116.51221)" x="86.5" y="116.51221">−1</text>
     </g>
     <g id="text_7">
      <text style="font-family:DejaVu Sans;font-size:10px;font-style:normal;font-weight:normal;text-anchor:start;" transform="rotate(-0, 651.5, 116.51221)" x="651.5" y="116.51221">−1</text>
     </g>
    </g>
    <g id="ytick_2">
     <g id="line2d_15">
      <path clip-path="url(#p1870affd7f)" d="M 90 83.72236 
L 648 83.72236 
" style="fill:none;opacity:0.4;stroke:#b0b0b0;stroke-dasharray:2.96,1.28;stroke-dashoffset:0;stroke-width:0.8;"/>
     </g>
     <g id="line2d_16">
      <g>
       <use style="stroke:#000000;stroke-width:0.8;" x="90" xlink:href="#m796399f34e" y="83.72236"/>
      </g>
     </g>
     <g id="text_8">
      <text style="font-family:DejaVu Sans;font-size:10px;font-style:normal;font-weight:normal;text-anchor:end;" transform="rotate(-0, 86.5, 87.521579)" x="86.5" y="87.521579">0</text>
     </g>
     <g id="text_9">
      <text style="font-family:DejaVu Sans;font-size:10px;font-style:normal;font-weight:normal;text-anchor:start;" transform="rotate(-0, 651.5, 87.521579)" x="651.5" y="87.521579">0</text>
     </g>
    </g>
    <g id="ytick_3">
     <g id="line2d_17">
      <path clip-path="url(#p1870affd7f)" d="M 90 54.731728 
L 648 54.731728 
" style="fill:none;opacity:0.4;stroke:#b0b0b0;stroke-dasharray:2.96,1.28;stroke-dashoffset:0;stroke-width:0.8;"/>
     </g>
     <g id="line2d_18">
      <g>
       <use style="stroke:#000000;stroke-width:0.8;" x="90" xlink:href="#m796399f34e" y="54.731728"/>
      </g>
     </g>
     <g id="text_10">
      <text style="font-family:DejaVu Sans;font-size:10px;font-style:normal;font-weight:normal;text-anchor:end;" transform="rotate(-0, 86.5, 58.530947)" x="86.5" y="58.530947">1</text>
     </g>
     <g id="text_11">
      <text style="font-family:DejaVu Sans;font-size:10px;font-style:normal;font-weight:normal;text-anchor:start;" transform="rotate(-0, 651.5, 58.530947)" x="651.5" y="58.530947">1</text>
     </g>
    </g>
    <g id="ytick_4">
     <g id="line2d_19">
      <path clip-path="url(#p1870affd7f)" d="M 90 25.741097 
L 648 25.741097 
" style="fill:none;opacity:0.4;stroke:#b0b0b0;stroke-dasharray:2.96,1.28;stroke-dashoffset:0;stroke-width:0.8;"/>
     </g>
     <g id="line2d_20">
      <g>
       <use style="stroke:#000000;stroke-width:0.8;" x="90" xlink:href="#m796399f34e" y="25.741097"/>
      </g>
     </g>
     <g id="text_12">
      <text style="font-family:DejaVu Sans;font-size:10px;font-style:normal;font-weight:normal;text-anchor:end;" transform="rotate(-0, 86.5, 29.540316)" x="86.5" y="29.540316">2</text>
     </g>
     <g id="text_13">
      <text style="font-family:DejaVu Sans;font-size:10px;font-style:normal;font-weight:normal;text-anchor:start;" transform="rotate(-0, 651.5, 29.540316)" x="651.5" y="29.540316">2</text>
     </g>
    </g>
    <g id="text_14">
     <text style="font-family:DejaVu Sans;font-size:10px;font-style:normal;font-weight:normal;text-anchor:middle;" transform="rotate(-90, 65.678125, 71.64)" x="65.678125" y="71.64">Relative Bias (\%)</text>
    </g>
   </g>
   <g id="line2d_21">
    <path clip-path="url(#p1870affd7f)" d="M 115.363636 95.762098 
L 123.213128 78.402558 
L 123.736428 88.076845 
L 128.446123 96.65028 
L 134.202417 91.043139 
L 135.249016 97.482799 
L 136.818914 81.805394 
L 136.818914 86.526043 
L 137.342213 71.266949 
L 142.051909 65.658176 
L 144.145106 85.648086 
L 146.238304 77.934004 
L 147.284903 94.416984 
L 147.808203 100.629882 
L 149.378101 64.795562 
L 150.4247 93.266989 
L 153.041197 88.98043 
L 153.041197 109.58685 
L 153.564497 79.672134 
L 154.611095 88.102762 
L 154.611095 89.175312 
L 155.134395 99.13733 
L 155.134395 60.836768 
L 155.657694 64.995193 
L 156.180994 55.296618 
L 156.704293 91.651758 
L 157.227593 83.702461 
L 157.227593 53.998824 
L 157.750892 60.188582 
L 158.274192 47.030297 
L 158.736139 59.513264 
L 162.321385 78.217246 
L 162.983887 78.134006 
L 163.50257 98.11478 
L 163.507186 115.911965 
L 164.711548 72.430633 
L 165.309089 96.468987 
L 167.699253 84.540837 
L 168.296794 79.039239 
L 168.894335 73.998916 
L 169.26348 96.945125 
L 169.491876 72.671569 
L 169.491876 97.258294 
L 170.089417 73.818672 
L 170.310079 82.754292 
L 170.311758 98.63773 
L 171.356678 94.49166 
L 171.88204 93.942213 
L 172.479581 76.653706 
L 172.926576 93.425934 
L 176.148204 89.349868 
L 177.112972 72.490372 
L 177.112972 91.251764 
L 178.45499 79.070364 
L 178.68287 66.247626 
L 179.20617 71.106963 
L 179.729469 86.749634 
L 180.247613 66.027414 
L 180.247613 98.407596 
L 180.252769 89.475965 
L 180.845154 92.16577 
L 181.442695 70.176928 
L 181.822667 82.301151 
L 182.345967 80.411291 
L 182.345967 92.403001 
L 183.235318 91.604779 
L 183.392566 98.232927 
L 183.392566 85.845487 
L 183.915865 92.047072 
L 184.4304 64.712271 
L 184.962464 101.930989 
L 185.389245 99.390349 
L 185.875615 80.021715 
L 186.223023 97.664291 
L 187.055662 93.341783 
L 191.00335 80.743068 
L 191.00335 63.173271 
L 191.242057 92.191889 
L 191.242057 107.648522 
L 191.600891 86.925969 
L 192.198432 87.892606 
L 192.288656 22.221818 
L 192.795973 105.821077 
L 192.795973 92.376931 
L 192.795973 86.462498 
L 193.171173 77.299536 
L 193.858555 78.778091 
L 194.905154 85.949392 
L 195.116655 83.198807 
L 195.186137 87.548673 
L 195.428453 87.824828 
L 195.603026 90.251571 
L 195.783678 106.886552 
L 195.951752 71.878716 
L 197.521651 72.894173 
L 198.521249 75.064115 
L 198.521249 75.064115 
L 198.56825 105.297053 
L 199.00762 89.679256 
L 199.091549 66.669602 
L 199.49399 76.671525 
L 199.49399 85.284439 
L 199.980361 76.123119 
L 200.138148 98.145821 
L 200.466731 80.976696 
L 200.661448 102.548073 
L 200.661448 82.514318 
L 201.439473 121.058182 
L 201.708046 98.753074 
L 202.231346 103.445428 
L 202.412214 88.099637 
L 202.412214 97.130654 
L 202.898584 87.346992 
L 203.277945 106.006204 
L 203.384955 79.170218 
L 203.801244 63.319743 
L 204.357696 88.116826 
L 204.357696 84.811631 
L 204.847843 75.51834 
L 205.330437 88.215404 
L 205.330437 77.805594 
L 205.816807 87.613666 
L 205.894442 74.539756 
L 206.417742 86.855246 
L 207.275919 81.247921 
L 207.76229 83.288305 
L 207.76229 85.10109 
L 209.221401 84.415357 
L 210.194142 84.354664 
L 210.194142 70.906614 
L 210.194142 84.354664 
L 210.680513 84.056842 
L 210.680513 83.946891 
L 210.680513 84.702362 
L 210.680513 84.416822 
L 211.166883 83.745152 
L 211.166883 94.275689 
L 211.319743 99.658916 
L 211.653254 84.818339 
L 211.917284 94.781378 
L 212.697335 89.929499 
L 213.112366 83.239273 
L 213.112366 84.548619 
L 213.112366 94.766269 
L 213.112366 83.118975 
L 213.112366 84.720347 
L 213.598736 85.606981 
L 213.598736 82.918493 
L 214.085107 85.940214 
L 214.267233 67.930355 
L 214.267233 103.940338 
L 214.904988 65.240858 
L 215.057848 87.708725 
L 216.030589 86.686231 
L 216.883731 72.047853 
L 217.00333 78.500475 
L 217.4897 74.853263 
L 217.4897 87.293698 
L 217.93033 52.214084 
L 218.462442 79.219979 
L 218.462442 89.90398 
L 218.948812 83.848783 
L 218.948812 81.785957 
L 218.948812 96.588981 
L 220.546827 88.319483 
L 220.880398 68.048396 
L 222.116725 75.336636 
L 222.116725 77.812681 
L 223.163324 90.628306 
L 223.270562 90.067515 
L 223.868103 94.175162 
L 224.209923 82.081095 
L 224.785259 91.196261 
L 225.256522 80.925047 
L 226.303121 85.426309 
L 226.730741 78.026867 
L 226.730741 83.694323 
L 227.217111 73.757592 
L 228.189852 92.3427 
L 228.64843 80.984584 
L 228.676223 89.596127 
L 228.676223 74.030135 
L 230.135335 89.700287 
L 231.536115 78.495624 
L 231.536115 67.917534 
L 232.059415 81.102016 
L 232.567187 83.507387 
L 232.567187 87.450084 
L 233.539928 85.252999 
L 233.629313 102.135631 
L 234.152613 59.890218 
L 234.51267 63.830129 
L 234.99904 90.662966 
L 235.971781 90.584295 
L 238.339008 78.386273 
L 238.806627 97.563649 
L 239.385607 73.206893 
L 240.599249 69.778401 
L 240.835487 87.736975 
L 240.955506 76.234543 
L 241.321857 76.735135 
L 241.478805 98.438489 
L 242.525404 70.385971 
L 243.586954 84.692554 
L 243.586954 87.725825 
L 244.095302 70.438317 
L 244.618602 92.728673 
L 244.618602 71.845681 
L 246.185563 81.335169 
L 246.574659 97.22159 
L 247.644674 98.077295 
L 247.758398 89.859496 
L 248.281698 91.329641 
L 248.367282 86.343526 
L 249.851596 102.393621 
L 250.076527 98.550757 
L 250.374896 67.484718 
L 250.757446 105.275221 
L 250.898195 76.891084 
L 252.50838 88.721671 
L 252.99475 72.253715 
L 252.99475 87.249372 
L 253.514692 73.731431 
L 253.74515 86.391925 
L 254.037992 86.457624 
L 254.453862 90.461568 
L 254.940232 81.637845 
L 256.135314 62.565643 
L 256.399344 77.70506 
L 257.330396 105.9033 
L 257.701088 62.872689 
L 257.701088 82.713065 
L 258.224388 65.707578 
L 258.344826 85.946073 
L 258.747687 61.923601 
L 259.270986 70.980476 
L 259.270986 118.27817 
L 261.263049 84.617394 
L 261.887484 76.036096 
L 263.457382 105.648812 
L 263.980682 100.686759 
L 264.667643 89.717624 
L 265.55058 84.955725 
L 266.597179 71.056298 
L 266.891051 91.211956 
L 269.213676 73.923723 
L 269.213676 62.137366 
L 271.306874 100.625623 
L 271.306874 96.349082 
L 272.876772 86.264981 
L 272.935943 64.261736 
L 272.935943 97.791991 
L 273.422313 85.556538 
L 274.446671 95.523776 
L 275.256625 82.518405 
L 276.016569 96.569064 
L 276.539869 86.502295 
L 278.109767 103.503666 
L 279.156366 92.98649 
L 279.156366 94.900029 
L 280.231501 82.784356 
L 280.717871 88.534236 
L 280.726264 68.176136 
L 281.232034 90.741289 
L 281.772863 101.749206 
L 282.176983 89.686267 
L 282.663353 80.418362 
L 283.149724 77.101446 
L 283.342761 96.05454 
L 283.342761 79.416212 
L 283.866061 78.103174 
L 284.81728 85.987156 
L 284.91266 79.508883 
L 284.91266 83.61832 
L 285.959259 79.747166 
L 286.012362 103.759292 
L 287.005858 99.116158 
L 287.207444 80.717349 
L 287.527059 84.201229 
L 288.402526 86.538943 
L 288.575756 98.997513 
L 289.472541 73.864343 
L 289.597608 92.143787 
L 289.597608 82.571646 
L 289.958912 79.965785 
L 291.390231 87.945649 
L 291.987772 51.931384 
L 291.987772 68.516828 
L 293.808751 50.096323 
L 293.808751 67.439274 
L 294.33205 72.383914 
L 294.33205 71.493955 
L 294.855349 88.94629 
L 295.308988 94.964092 
L 296.170558 86.001038 
L 296.425248 81.23156 
L 296.768099 90.028284 
L 296.768099 68.257485 
L 297.36564 88.556911 
L 297.995146 77.278336 
L 298.518446 80.741347 
L 298.713581 96.660764 
L 298.713581 93.977148 
L 299.041745 75.537043 
L 299.041745 56.715761 
L 299.755804 81.058182 
L 300.172693 73.136363 
L 301.145434 89.292525 
L 301.548427 90.083965 
L 301.658242 67.105021 
L 301.658242 93.194988 
L 303.228141 76.020958 
L 303.34105 79.769669 
L 303.75144 88.068644 
L 305.036398 98.391887 
L 305.321339 82.472297 
L 305.844638 93.531987 
L 306.367937 81.30087 
L 306.926295 81.151696 
L 307.414536 91.326411 
L 308.121377 84.818881 
L 308.440992 73.415893 
L 309.316459 87.08462 
L 309.413733 80.881798 
L 310.031034 93.769982 
L 310.511541 76.941291 
L 310.554333 80.746664 
L 313.304698 90.79632 
L 314.096787 82.191923 
L 314.277439 86.938024 
L 315.73655 87.010021 
L 315.73655 81.48036 
L 317.084492 69.587376 
L 318.279574 77.691633 
L 318.403825 99.818794 
L 318.877114 88.009643 
L 319.973723 88.729956 
L 320.072196 89.844432 
L 320.072196 65.791067 
L 321.020322 81.904268 
L 321.572997 102.863392 
L 321.864819 80.519575 
L 322.46236 77.094486 
L 323.032109 84.498099 
L 323.059901 102.350069 
L 323.11352 75.523883 
L 324.160119 76.156124 
L 324.254983 77.858445 
L 324.254983 88.456766 
L 324.254983 60.877271 
L 324.852524 91.155837 
L 324.852524 90.60115 
L 327.299916 104.452539 
L 327.840229 83.270245 
L 328.868555 92.086811 
L 328.868555 101.267196 
L 328.869814 70.260174 
L 329.916413 78.942328 
L 330.230393 88.266601 
L 331.786778 68.535674 
L 332.009611 82.162976 
L 332.620556 82.376072 
L 333.218097 80.956218 
L 333.579509 82.889844 
L 333.815638 90.046914 
L 336.164113 83.069295 
L 336.196006 83.925369 
L 336.196006 87.27853 
L 336.650484 75.408923 
L 337.242605 83.953295 
L 337.400884 79.071943 
L 337.623225 76.594145 
L 337.998425 73.86568 
L 338.289204 99.836821 
L 338.812504 100.917515 
L 339.791048 75.817106 
L 340.541448 73.465829 
L 341.429001 69.760923 
L 342.00056 81.399996 
L 342.48693 68.969067 
L 342.778753 87.09064 
L 342.778753 82.733122 
L 345.092097 82.296468 
L 346.138696 97.06037 
L 346.864265 90.266221 
L 347.55908 96.73028 
L 349.278493 74.823638 
L 349.296118 70.993368 
L 350.546785 77.103571 
L 351.727971 73.868365 
L 351.727971 85.427362 
L 352.936949 81.125654 
L 353.187082 88.997961 
L 353.187082 85.553179 
L 353.464888 87.402875 
L 355.034787 83.810743 
L 355.327113 77.925874 
L 355.327113 86.883371 
L 355.924654 81.349552 
L 356.522195 100.851642 
L 357.564417 84.344858 
L 358.314817 80.421244 
L 358.697883 83.550698 
L 359.023529 85.103365 
L 359.509899 74.704891 
L 359.99627 97.324397 
L 360.267781 88.005847 
L 360.969011 72.50914 
L 361.31438 89.163204 
L 362.360979 76.831483 
L 362.428123 82.227334 
L 362.497604 64.184976 
L 362.914493 89.163328 
L 366.024075 76.571564 
L 366.680391 76.844307 
L 367.277932 88.454944 
L 369.163872 71.232205 
L 370.73377 67.781511 
L 372.058259 86.493051 
L 372.6558 79.105052 
L 376.046498 104.722931 
L 377.019239 73.25124 
L 378.033669 70.40537 
L 379.228751 79.440618 
L 379.228751 74.641195 
L 379.937462 89.257324 
L 380.423833 89.923309 
L 381.021374 99.75159 
L 382.216456 80.950017 
L 382.813997 101.740955 
L 382.855685 101.685709 
L 383.411537 95.974014 
L 384.009078 83.57794 
L 385.20416 83.131283 
L 385.287538 98.333696 
L 385.287538 61.305187 
L 387.23302 97.671852 
L 387.479353 91.439302 
L 388.692132 75.051159 
L 390.637614 77.116976 
L 391.17957 80.456772 
L 391.665749 72.35772 
L 391.777111 81.363609 
L 392.583096 82.820561 
L 392.712348 70.342753 
L 396.474061 89.360587 
L 397.154979 83.165207 
L 397.422043 75.583446 
L 397.945342 92.845737 
L 397.945342 83.272208 
L 399.51524 94.507755 
L 399.878654 85.875052 
L 400.03854 86.693413 
L 400.851396 86.513463 
L 401.085139 78.873322 
L 404.748235 74.853167 
L 404.923012 73.458551 
L 406.841433 98.578312 
L 407.910717 97.836389 
L 408.508258 77.297183 
L 410.092436 96.069384 
L 412.037918 86.754494 
L 412.597727 77.466957 
L 415.442512 99.426917 
L 415.737524 76.284445 
L 415.928882 81.683199 
L 420.447219 94.097685 
L 426.142664 86.489714 
L 428.82465 90.838714 
L 429.343309 83.048297 
L 429.547258 90.263435 
L 430.033628 90.545144 
L 430.617273 82.142022 
L 431.214814 89.482125 
L 431.959807 87.736928 
L 432.465481 91.351059 
L 432.465481 98.702707 
L 433.007437 105.39652 
L 433.529705 84.026513 
L 433.604978 84.152991 
L 435.622903 86.001368 
L 436.146202 79.400157 
L 437.815557 83.775647 
L 438.301927 76.929996 
L 441.970551 88.963173 
L 443.763174 77.086382 
L 444.360715 83.820399 
L 445.111115 77.468251 
L 446.083856 83.954382 
L 448.029338 82.908989 
L 448.18209 87.092096 
L 449.228689 74.224081 
L 451.321886 73.06928 
L 452.128747 86.836638 
L 452.726288 90.900185 
L 453.379414 87.487256 
L 455.324897 89.457445 
L 455.324897 87.224604 
L 455.713993 75.509267 
L 456.554881 80.943112 
L 456.909075 97.818486 
L 456.909075 76.493636 
L 457.506616 81.132395 
L 457.756749 88.439071 
L 459.299239 75.956475 
L 460.494321 79.543751 
L 460.494321 75.125637 
L 462.134084 75.541134 
L 462.286943 82.324018 
L 464.079566 84.099032 
L 465.450972 82.713718 
L 468.590768 84.640027 
L 469.457435 89.500941 
L 469.457435 86.101946 
L 470.054976 77.730193 
L 470.652517 76.071399 
L 470.652517 86.253075 
L 471.847599 72.457687 
L 473.042681 90.178873 
L 474.293348 93.018192 
L 474.779718 97.485499 
L 474.835303 85.162072 
L 475.266089 78.616943 
L 476.030385 76.073347 
L 476.23883 85.61951 
L 477.823008 93.000391 
L 478.010159 91.429753 
L 478.184312 78.135985 
L 478.184312 86.319141 
L 479.157053 91.40645 
L 479.643424 92.732039 
L 480.103357 75.503571 
L 480.213172 90.753932 
L 480.213172 83.068136 
L 480.810713 83.732966 
L 481.673255 94.343532 
L 482.603336 82.52103 
L 483.200877 89.448322 
L 483.798418 75.61902 
L 484.020759 74.355207 
L 484.9935 79.884334 
L 485.966241 83.736193 
L 485.966241 82.021726 
L 486.188582 83.339816 
L 487.383664 83.269691 
L 487.981204 86.162124 
L 488.398093 85.965095 
L 489.176286 86.982325 
L 490.968909 80.69247 
L 493.359073 80.144991 
L 494.23454 86.670572 
L 495.151696 85.551329 
L 495.151696 87.148261 
L 495.279041 79.937913 
L 496.848939 84.169346 
L 498.736942 72.019375 
L 499.334483 83.550759 
L 499.932024 79.370854 
L 501.127105 80.329954 
L 502.081934 84.48544 
L 503.128533 86.355827 
L 503.47558 81.857872 
L 503.517269 95.404567 
L 503.651832 93.193096 
L 504.934692 74.556455 
L 504.934692 79.795632 
L 507.102515 80.183808 
L 507.700056 87.50354 
L 508.297597 79.098447 
L 508.825656 87.163109 
L 508.884827 78.987773 
L 509.492679 87.037529 
L 510.771139 80.110231 
L 511.882843 85.71226 
L 513.689362 77.7584 
L 514.870547 87.833835 
L 515.468088 85.814068 
L 516.607585 82.667378 
L 517.260711 83.608452 
L 517.260711 84.178833 
L 518.066697 82.609044 
L 519.053334 87.068961 
L 519.350816 88.951642 
L 519.525808 85.803996 
L 522.444032 87.558043 
L 522.490612 82.555713 
L 522.63858 79.67322 
L 524.875884 89.318552 
L 524.875884 92.334815 
L 525.626285 79.891801 
L 526.677008 90.542218 
L 528.246906 76.318294 
L 528.613989 75.642546 
L 531.601694 82.174004 
L 532.199235 89.159274 
L 533.144184 81.981309 
L 534.603295 86.128742 
L 535.576036 80.880546 
L 535.784481 81.927292 
L 535.784481 77.382449 
L 536.382022 85.494402 
L 538.712895 84.68856 
L 538.772186 90.514496 
L 539.369727 85.641522 
L 540.564808 86.114193 
L 542.357431 80.031249 
L 542.385224 85.732831 
L 542.954972 82.541834 
L 543.357965 88.783218 
L 543.357965 79.012865 
L 544.330706 81.52207 
L 545.942677 86.323876 
L 546.762559 87.73071 
L 548.708041 78.643494 
L 549.178885 87.673846 
L 552.112635 81.543626 
L 554.30825 81.821924 
L 554.905791 84.109204 
L 555.458478 88.291373 
L 556.698414 84.424509 
L 557.028376 87.571896 
L 557.462711 90.288948 
L 557.893496 83.295053 
L 558.435452 85.4508 
L 559.644874 87.058459 
L 560.380934 85.225403 
L 560.691473 81.788631 
L 560.881201 81.519149 
L 562.673824 81.089687 
L 563.785528 85.099909 
L 565.063988 81.166258 
L 566.217381 84.524142 
L 566.85661 83.478178 
L 572.83202 86.061046 
L 574.297258 85.109044 
L 574.48568 79.46119 
L 575.343857 86.693604 
L 575.819725 84.161583 
L 576.417266 84.340617 
L 576.917533 88.692512 
L 577.890274 84.926101 
L 579.40497 84.102276 
L 579.835756 83.154378 
L 580.053552 87.173206 
L 582.267608 84.529546 
L 582.753979 86.083726 
L 583.587757 80.439956 
L 583.587757 83.949245 
L 584.782839 84.842337 
L 585.672202 84.949639 
L 586.575462 86.800822 
L 586.644943 84.648153 
L 588.965626 87.669068 
L 590.758249 83.423439 
L 590.758249 85.647435 
L 591.35579 81.470317 
L 593.148412 85.294262 
L 593.745953 84.425288 
L 593.940502 82.778792 
L 594.343494 85.039269 
L 594.941035 85.575009 
L 595.538576 84.633979 
L 596.136117 85.113683 
L 596.799135 86.636335 
L 597.331199 84.96267 
L 597.331199 84.496768 
L 597.92874 85.286182 
L 599.721363 84.717631 
L 599.721363 83.171702 
L 600.916445 84.256136 
L 601.513986 85.189831 
L 601.72243 86.100455 
L 604.50169 85.659132 
L 604.640654 84.706556 
L 605.099231 85.910926 
L 605.127024 81.815913 
L 605.695226 83.753644 
L 608.684477 85.15254 
L 608.684477 84.604396 
L 609.879559 85.465839 
L 610.4771 86.138253 
L 611.672182 83.409078 
L 612.908953 83.849449 
L 613.881694 83.472141 
L 613.881694 84.24614 
L 614.591316 82.597124 
L 616.313547 83.61023 
L 618.745399 83.825545 
L 621.232837 84.585374 
L 622.636364 83.505932 
L 622.636364 83.505932 
" style="fill:none;stroke:#1f77b4;stroke-linecap:square;stroke-width:1.5;"/>
   </g>
   <g id="patch_3">
    <path d="M 90 126 
L 90 17.28 
" style="fill:none;stroke:#000000;stroke-linecap:square;stroke-linejoin:miter;stroke-width:0.8;"/>
   </g>
   <g id="patch_4">
    <path d="M 648 126 
L 648 17.28 
" style="fill:none;stroke:#000000;stroke-linecap:square;stroke-linejoin:miter;stroke-width:0.8;"/>
   </g>
   <g id="patch_5">
    <path d="M 90 126 
L 648 126 
" style="fill:none;stroke:#000000;stroke-linecap:square;stroke-linejoin:miter;stroke-width:0.8;"/>
   </g>
   <g id="patch_6">
    <path d="M 90 17.28 
L 648 17.28 
" style="fill:none;stroke:#000000;stroke-linecap:square;stroke-linejoin:miter;stroke-width:0.8;"/>
   </g>
  </g>
  <g id="text_15">
   <text style="font-family:DejaVu Sans;font-size:12px;font-style:normal;font-weight:normal;text-anchor:middle;" transform="rotate(-0, 360, 11.998125)" x="360" y="11.998125">10-Folds Cross-Validation (Null-Class discarded)</text>
  </g>
 </g>
 <defs>
  <clipPath id="p1870affd7f">
   <rect height="108.72" width="558" x="90" y="17.28"/>
  </clipPath>
 </defs>
</svg>
