<?xml version="1.0" encoding="utf-8" standalone="no"?>
<!DOCTYPE svg PUBLIC "-//W3C//DTD SVG 1.1//EN"
  "http://www.w3.org/Graphics/SVG/1.1/DTD/svg11.dtd">
<!-- Created with matplotlib (http://matplotlib.org/) -->
<svg height="144pt" version="1.1" viewBox="0 0 720 144" width="720pt" xmlns="http://www.w3.org/2000/svg" xmlns:xlink="http://www.w3.org/1999/xlink">
 <defs>
  <style type="text/css">
*{stroke-linecap:butt;stroke-linejoin:round;}
  </style>
 </defs>
 <g id="figure_1">
  <g id="patch_1">
   <path d="M 0 144 
L 720 144 
L 720 0 
L 0 0 
z
" style="fill:#ffffff;"/>
  </g>
  <g id="axes_1">
   <g id="patch_2">
    <path d="M 90 126 
L 648 126 
L 648 17.28 
L 90 17.28 
z
" style="fill:#ffffff;"/>
   </g>
   <g id="matplotlib.axis_1">
    <g id="xtick_1">
     <g id="line2d_1">
      <path clip-path="url(#p567d044824)" d="M 153.019169 126 
L 153.019169 17.28 
" style="fill:none;opacity:0.4;stroke:#b0b0b0;stroke-dasharray:2.96,1.28;stroke-dashoffset:0;stroke-width:0.8;"/>
     </g>
     <g id="line2d_2">
      <defs>
       <path d="M 0 0 
L 0 -3.5 
" id="mb155ad5f17" style="stroke:#000000;stroke-width:0.8;"/>
      </defs>
      <g>
       <use style="stroke:#000000;stroke-width:0.8;" x="153.019169" xlink:href="#mb155ad5f17" y="126"/>
      </g>
     </g>
     <g id="line2d_3">
      <defs>
       <path d="M 0 0 
L 0 3.5 
" id="mbc2682cfc3" style="stroke:#000000;stroke-width:0.8;"/>
      </defs>
      <g>
       <use style="stroke:#000000;stroke-width:0.8;" x="153.019169" xlink:href="#mbc2682cfc3" y="17.28"/>
      </g>
     </g>
     <g id="text_1">
      <text style="font-family:DejaVu Sans;font-size:10px;font-style:normal;font-weight:normal;text-anchor:middle;" transform="rotate(-0, 153.019169, 137.098437)" x="153.019169" y="137.098437">10</text>
     </g>
    </g>
    <g id="xtick_2">
     <g id="line2d_4">
      <path clip-path="url(#p567d044824)" d="M 225.357429 126 
L 225.357429 17.28 
" style="fill:none;opacity:0.4;stroke:#b0b0b0;stroke-dasharray:2.96,1.28;stroke-dashoffset:0;stroke-width:0.8;"/>
     </g>
     <g id="line2d_5">
      <g>
       <use style="stroke:#000000;stroke-width:0.8;" x="225.357429" xlink:href="#mb155ad5f17" y="126"/>
      </g>
     </g>
     <g id="line2d_6">
      <g>
       <use style="stroke:#000000;stroke-width:0.8;" x="225.357429" xlink:href="#mbc2682cfc3" y="17.28"/>
      </g>
     </g>
     <g id="text_2">
      <text style="font-family:DejaVu Sans;font-size:10px;font-style:normal;font-weight:normal;text-anchor:middle;" transform="rotate(-0, 225.357429, 137.098437)" x="225.357429" y="137.098437">20</text>
     </g>
    </g>
    <g id="xtick_3">
     <g id="line2d_7">
      <path clip-path="url(#p567d044824)" d="M 297.69569 126 
L 297.69569 17.28 
" style="fill:none;opacity:0.4;stroke:#b0b0b0;stroke-dasharray:2.96,1.28;stroke-dashoffset:0;stroke-width:0.8;"/>
     </g>
     <g id="line2d_8">
      <g>
       <use style="stroke:#000000;stroke-width:0.8;" x="297.69569" xlink:href="#mb155ad5f17" y="126"/>
      </g>
     </g>
     <g id="line2d_9">
      <g>
       <use style="stroke:#000000;stroke-width:0.8;" x="297.69569" xlink:href="#mbc2682cfc3" y="17.28"/>
      </g>
     </g>
     <g id="text_3">
      <text style="font-family:DejaVu Sans;font-size:10px;font-style:normal;font-weight:normal;text-anchor:middle;" transform="rotate(-0, 297.69569, 137.098437)" x="297.69569" y="137.098437">30</text>
     </g>
    </g>
    <g id="xtick_4">
     <g id="line2d_10">
      <path clip-path="url(#p567d044824)" d="M 370.03395 126 
L 370.03395 17.28 
" style="fill:none;opacity:0.4;stroke:#b0b0b0;stroke-dasharray:2.96,1.28;stroke-dashoffset:0;stroke-width:0.8;"/>
     </g>
     <g id="line2d_11">
      <g>
       <use style="stroke:#000000;stroke-width:0.8;" x="370.03395" xlink:href="#mb155ad5f17" y="126"/>
      </g>
     </g>
     <g id="line2d_12">
      <g>
       <use style="stroke:#000000;stroke-width:0.8;" x="370.03395" xlink:href="#mbc2682cfc3" y="17.28"/>
      </g>
     </g>
     <g id="text_4">
      <text style="font-family:DejaVu Sans;font-size:10px;font-style:normal;font-weight:normal;text-anchor:middle;" transform="rotate(-0, 370.03395, 137.098437)" x="370.03395" y="137.098437">40</text>
     </g>
    </g>
    <g id="xtick_5">
     <g id="line2d_13">
      <path clip-path="url(#p567d044824)" d="M 442.37221 126 
L 442.37221 17.28 
" style="fill:none;opacity:0.4;stroke:#b0b0b0;stroke-dasharray:2.96,1.28;stroke-dashoffset:0;stroke-width:0.8;"/>
     </g>
     <g id="line2d_14">
      <g>
       <use style="stroke:#000000;stroke-width:0.8;" x="442.37221" xlink:href="#mb155ad5f17" y="126"/>
      </g>
     </g>
     <g id="line2d_15">
      <g>
       <use style="stroke:#000000;stroke-width:0.8;" x="442.37221" xlink:href="#mbc2682cfc3" y="17.28"/>
      </g>
     </g>
     <g id="text_5">
      <text style="font-family:DejaVu Sans;font-size:10px;font-style:normal;font-weight:normal;text-anchor:middle;" transform="rotate(-0, 442.37221, 137.098437)" x="442.37221" y="137.098437">50</text>
     </g>
    </g>
    <g id="xtick_6">
     <g id="line2d_16">
      <path clip-path="url(#p567d044824)" d="M 514.71047 126 
L 514.71047 17.28 
" style="fill:none;opacity:0.4;stroke:#b0b0b0;stroke-dasharray:2.96,1.28;stroke-dashoffset:0;stroke-width:0.8;"/>
     </g>
     <g id="line2d_17">
      <g>
       <use style="stroke:#000000;stroke-width:0.8;" x="514.71047" xlink:href="#mb155ad5f17" y="126"/>
      </g>
     </g>
     <g id="line2d_18">
      <g>
       <use style="stroke:#000000;stroke-width:0.8;" x="514.71047" xlink:href="#mbc2682cfc3" y="17.28"/>
      </g>
     </g>
     <g id="text_6">
      <text style="font-family:DejaVu Sans;font-size:10px;font-style:normal;font-weight:normal;text-anchor:middle;" transform="rotate(-0, 514.71047, 137.098437)" x="514.71047" y="137.098437">60</text>
     </g>
    </g>
    <g id="xtick_7">
     <g id="line2d_19">
      <path clip-path="url(#p567d044824)" d="M 587.048731 126 
L 587.048731 17.28 
" style="fill:none;opacity:0.4;stroke:#b0b0b0;stroke-dasharray:2.96,1.28;stroke-dashoffset:0;stroke-width:0.8;"/>
     </g>
     <g id="line2d_20">
      <g>
       <use style="stroke:#000000;stroke-width:0.8;" x="587.048731" xlink:href="#mb155ad5f17" y="126"/>
      </g>
     </g>
     <g id="line2d_21">
      <g>
       <use style="stroke:#000000;stroke-width:0.8;" x="587.048731" xlink:href="#mbc2682cfc3" y="17.28"/>
      </g>
     </g>
     <g id="text_7">
      <text style="font-family:DejaVu Sans;font-size:10px;font-style:normal;font-weight:normal;text-anchor:middle;" transform="rotate(-0, 587.048731, 137.098437)" x="587.048731" y="137.098437">70</text>
     </g>
    </g>
    <g id="text_8">
     <text style="font-family:DejaVu Sans;font-size:10px;font-style:normal;font-weight:normal;text-anchor:middle;" transform="rotate(-0, 369, 150.776563)" x="369" y="150.776563">f1-score</text>
    </g>
   </g>
   <g id="matplotlib.axis_2">
    <g id="ytick_1">
     <g id="line2d_22">
      <path clip-path="url(#p567d044824)" d="M 90 107.425887 
L 648 107.425887 
" style="fill:none;opacity:0.4;stroke:#b0b0b0;stroke-dasharray:2.96,1.28;stroke-dashoffset:0;stroke-width:0.8;"/>
     </g>
     <g id="line2d_23">
      <defs>
       <path d="M 0 0 
L 3.5 0 
" id="m6c7e11c6da" style="stroke:#000000;stroke-width:0.8;"/>
      </defs>
      <g>
       <use style="stroke:#000000;stroke-width:0.8;" x="90" xlink:href="#m6c7e11c6da" y="107.425887"/>
      </g>
     </g>
     <g id="text_9">
      <text style="font-family:DejaVu Sans;font-size:10px;font-style:normal;font-weight:normal;text-anchor:end;" transform="rotate(-0, 86.5, 111.225105)" x="86.5" y="111.225105">−1</text>
     </g>
     <g id="text_10">
      <text style="font-family:DejaVu Sans;font-size:10px;font-style:normal;font-weight:normal;text-anchor:start;" transform="rotate(-0, 651.5, 111.225105)" x="651.5" y="111.225105">−1</text>
     </g>
    </g>
    <g id="ytick_2">
     <g id="line2d_24">
      <path clip-path="url(#p567d044824)" d="M 90 70.556463 
L 648 70.556463 
" style="fill:none;opacity:0.4;stroke:#b0b0b0;stroke-dasharray:2.96,1.28;stroke-dashoffset:0;stroke-width:0.8;"/>
     </g>
     <g id="line2d_25">
      <g>
       <use style="stroke:#000000;stroke-width:0.8;" x="90" xlink:href="#m6c7e11c6da" y="70.556463"/>
      </g>
     </g>
     <g id="text_11">
      <text style="font-family:DejaVu Sans;font-size:10px;font-style:normal;font-weight:normal;text-anchor:end;" transform="rotate(-0, 86.5, 74.355682)" x="86.5" y="74.355682">0</text>
     </g>
     <g id="text_12">
      <text style="font-family:DejaVu Sans;font-size:10px;font-style:normal;font-weight:normal;text-anchor:start;" transform="rotate(-0, 651.5, 74.355682)" x="651.5" y="74.355682">0</text>
     </g>
    </g>
    <g id="ytick_3">
     <g id="line2d_26">
      <path clip-path="url(#p567d044824)" d="M 90 33.68704 
L 648 33.68704 
" style="fill:none;opacity:0.4;stroke:#b0b0b0;stroke-dasharray:2.96,1.28;stroke-dashoffset:0;stroke-width:0.8;"/>
     </g>
     <g id="line2d_27">
      <g>
       <use style="stroke:#000000;stroke-width:0.8;" x="90" xlink:href="#m6c7e11c6da" y="33.68704"/>
      </g>
     </g>
     <g id="text_13">
      <text style="font-family:DejaVu Sans;font-size:10px;font-style:normal;font-weight:normal;text-anchor:end;" transform="rotate(-0, 86.5, 37.486259)" x="86.5" y="37.486259">1</text>
     </g>
     <g id="text_14">
      <text style="font-family:DejaVu Sans;font-size:10px;font-style:normal;font-weight:normal;text-anchor:start;" transform="rotate(-0, 651.5, 37.486259)" x="651.5" y="37.486259">1</text>
     </g>
    </g>
    <g id="text_15">
     <text style="font-family:DejaVu Sans;font-size:10px;font-style:normal;font-weight:normal;text-anchor:middle;" transform="rotate(-90, 65.678125, 71.64)" x="65.678125" y="71.64">Relative Bias (\%)</text>
    </g>
   </g>
   <g id="line2d_28">
    <path clip-path="url(#p567d044824)" d="M 115.363636 86.190588 
L 118.831909 86.552631 
L 120.813779 56.601184 
L 127.254857 54.968651 
L 127.254857 103.428615 
L 129.732195 77.374648 
L 133.200468 110.598752 
L 133.779883 69.13989 
L 134.191403 68.303826 
L 134.68687 69.160474 
L 138.155143 102.786177 
L 139.146078 74.584797 
L 140.137013 65.011923 
L 140.137013 40.553832 
L 140.632481 86.714748 
L 140.632481 64.418111 
L 144.100753 65.976265 
L 148.559961 55.339932 
L 150.146005 23.648335 
L 153.019169 64.465757 
L 153.514637 47.368208 
L 154.146613 36.56573 
L 155.496507 40.771244 
L 156.487442 66.51293 
L 156.982909 101.898908 
L 156.982909 54.602119 
L 156.982909 95.158573 
L 157.438548 92.163639 
L 158.147221 73.091318 
L 158.96478 78.026731 
L 160.94665 82.084752 
L 161.442117 90.990939 
L 162.433052 64.354796 
L 164.91039 81.381296 
L 164.91039 50.671003 
L 165.405858 92.103826 
L 167.883195 85.408225 
L 168.378663 56.188726 
L 168.378663 101.77507 
L 169.369598 53.927907 
L 171.351468 50.86045 
L 171.394483 53.686203 
L 172.694885 63.463503 
L 172.837871 89.517711 
L 173.828806 73.283526 
L 174.877035 70.167268 
L 175.315208 75.219009 
L 175.810676 48.900668 
L 176.306143 53.377774 
L 176.306143 35.086658 
L 176.306143 72.630792 
L 177.059184 77.83448 
L 177.297078 73.790617 
L 178.288013 82.568684 
L 178.288013 59.171804 
L 178.37245 76.954084 
L 178.783481 69.021499 
L 179.278949 73.853466 
L 179.774416 38.78903 
L 180.269884 43.02558 
L 180.765351 45.140963 
L 181.163637 77.853986 
L 181.628835 61.240203 
L 183.242689 74.632825 
L 184.233624 56.526218 
L 184.233624 83.666891 
L 184.233624 41.908959 
L 185.0604 91.57155 
L 186.280813 59.099077 
L 186.710962 60.349134 
L 186.746011 67.449646 
L 187.206429 86.521307 
L 187.206429 64.932261 
L 187.676406 79.775657 
L 188.692832 61.567536 
L 189.683767 77.33379 
L 189.683767 104.878941 
L 189.78839 38.561935 
L 190.179234 77.739283 
L 190.467593 76.739618 
L 191.170169 70.14976 
L 191.397989 79.336631 
L 192.161104 55.755948 
L 192.161104 56.067492 
L 192.161104 75.029176 
L 192.328385 85.966471 
L 192.697923 80.387806 
L 193.15204 59.665798 
L 193.25878 74.54271 
L 194.654374 80.608276 
L 195.629377 43.731752 
L 195.971148 89.682582 
L 196.124845 42.480449 
L 196.515165 68.132566 
L 196.515165 80.493283 
L 196.620312 77.293176 
L 197.11578 89.731642 
L 197.44556 70.732745 
L 197.611247 104.145898 
L 198.106715 71.685914 
L 198.375956 75.349687 
L 198.375956 71.212544 
L 199.306352 62.618183 
L 199.77155 63.159522 
L 199.971755 81.431027 
L 200.701945 69.325066 
L 200.701945 22.221818 
L 201.06283 72.946105 
L 201.426522 82.186217 
L 201.574988 65.802499 
L 201.632341 72.253447 
L 201.632341 59.331169 
L 201.632341 68.994033 
L 202.097539 63.903273 
L 202.153905 96.602884 
L 202.562736 120.212851 
L 202.565923 59.727937 
L 203.06139 74.096185 
L 203.556858 67.445628 
L 204.888726 69.512928 
L 205.04326 121.058182 
L 206.284319 77.712634 
L 206.284319 71.568642 
L 206.529663 93.628379 
L 206.749517 69.121238 
L 207.025131 62.015561 
L 207.214715 73.760882 
L 207.245587 96.199686 
L 207.520598 102.80055 
L 207.679912 50.743183 
L 207.679912 67.576366 
L 208.14511 78.942647 
L 208.14511 69.72582 
L 208.14511 71.511019 
L 208.511533 89.895364 
L 209.064045 34.949131 
L 209.075506 81.39566 
L 209.075506 69.384559 
L 209.540704 69.82915 
L 209.540704 71.456431 
L 209.540704 67.302741 
L 210.005901 70.396697 
L 210.005901 64.661651 
L 210.15512 46.035644 
L 210.471099 77.13568 
L 210.518812 55.803378 
L 210.936297 70.847504 
L 210.988871 42.666015 
L 210.988871 49.966095 
L 211.401495 75.639031 
L 211.866693 67.568191 
L 212.797088 59.611165 
L 212.970741 67.299841 
L 214.65788 76.19935 
L 214.883111 86.347307 
L 214.883111 58.980501 
L 215.123077 69.522689 
L 215.246803 91.90753 
L 215.588275 93.628293 
L 215.974186 52.565777 
L 216.439014 107.225028 
L 218.379462 76.591535 
L 218.84466 53.440383 
L 218.84466 67.32554 
L 219.309858 51.152002 
L 219.775056 72.325942 
L 219.775056 79.010525 
L 219.775056 70.395964 
L 219.775056 77.575615 
L 220.702177 86.48156 
L 220.898222 52.136848 
L 221.170649 58.990191 
L 221.170649 82.966336 
L 222.101045 68.730894 
L 222.880092 44.75702 
L 223.248018 27.400363 
L 223.375559 67.543726 
L 223.496638 68.648888 
L 224.339093 81.524743 
L 224.861962 80.732427 
L 225.430168 89.173463 
L 225.793859 64.158095 
L 225.852897 67.070361 
L 226.157551 72.471151 
L 226.287825 89.304538 
L 226.753023 89.277885 
L 226.753023 69.293269 
L 227.834767 64.813055 
L 228.148616 75.89218 
L 228.330235 88.475052 
L 228.330235 55.545549 
L 228.330235 80.523058 
L 228.703392 78.869416 
L 229.079012 64.903645 
L 229.816637 42.283002 
L 230.009408 92.468729 
L 230.312105 50.741542 
L 231.30304 62.316508 
L 231.405001 92.377785 
L 231.405001 62.041626 
L 231.798507 59.091492 
L 231.798507 51.312649 
L 231.798507 75.737668 
L 231.870199 61.253987 
L 232.293975 77.721167 
L 232.340308 56.842697 
L 233.067691 76.793099 
L 233.780378 51.961478 
L 234.275845 49.072799 
L 234.522458 72.779141 
L 234.522458 63.103842 
L 234.661386 67.323206 
L 235.249841 55.570801 
L 235.762248 57.800241 
L 235.977224 65.084744 
L 236.257715 97.210924 
L 236.522177 65.847376 
L 236.987375 50.990806 
L 236.987375 75.542493 
L 237.431991 24.66172 
L 237.431991 73.07291 
L 237.452573 62.814017 
L 237.795682 72.962153 
L 237.795682 68.461374 
L 237.91777 84.416706 
L 238.239585 52.132158 
L 238.735053 53.287358 
L 239.725988 87.235389 
L 239.725988 52.714635 
L 239.778562 75.069087 
L 240.221455 78.534124 
L 241.212391 89.708764 
L 241.212391 81.886952 
L 241.707858 80.16312 
L 241.707858 77.494398 
L 242.159982 64.572869 
L 242.203326 94.905823 
L 243.034946 74.365475 
L 243.251056 58.247658 
L 243.500144 65.262526 
L 244.895738 78.1494 
L 245.176131 46.822506 
L 245.671598 47.82994 
L 245.671598 61.664018 
L 245.796898 75.829405 
L 245.796898 73.197261 
L 246.887972 86.73419 
L 247.158001 70.138043 
L 247.221727 85.445015 
L 247.221727 84.04311 
L 247.615356 93.010071 
L 247.653469 73.71527 
L 248.148936 83.499599 
L 248.644404 89.678137 
L 249.433814 42.926423 
L 249.635339 59.24886 
L 250.626274 74.564048 
L 251.252272 88.854278 
L 252.338903 67.133395 
L 252.343346 91.698004 
L 252.608144 81.98464 
L 252.8041 53.326564 
L 253.07073 74.241642 
L 254.199694 66.885614 
L 254.664892 73.106878 
L 255.13009 82.029861 
L 255.595287 56.74539 
L 255.616571 88.777934 
L 256.060485 84.140061 
L 256.343954 41.879751 
L 256.571884 59.501584 
L 256.707646 81.624038 
L 256.990881 89.831165 
L 258.386474 66.950361 
L 258.851672 79.955221 
L 258.851672 77.473462 
L 258.889795 59.233068 
L 258.889795 94.88755 
L 259.31687 81.612224 
L 259.617179 66.16168 
L 261.177661 73.414721 
L 261.52656 95.474629 
L 262.16302 71.752226 
L 262.573255 73.240178 
L 262.573255 90.31509 
L 263.038452 51.12943 
L 263.254095 72.509233 
L 264.499365 54.748744 
L 264.499365 94.613248 
L 265.799936 39.44644 
L 265.829639 80.148779 
L 266.163627 55.760532 
L 266.891011 79.025134 
L 266.891011 36.869924 
L 270.527927 38.840901 
L 270.891618 57.730861 
L 272.342409 56.56157 
L 272.346385 83.361201 
L 273.738002 90.380262 
L 274.528534 87.940347 
L 275.399651 108.830812 
L 275.619609 82.729351 
L 276.063991 77.535164 
L 276.710684 53.086863 
L 277.381521 59.750206 
L 277.438067 62.785206 
L 278.372456 41.696881 
L 278.529142 57.257427 
L 278.892834 69.243375 
L 279.363391 99.840592 
L 280.250772 75.696198 
L 281.181167 80.86985 
L 281.438675 65.241215 
L 282.166058 49.443072 
L 282.336196 102.016695 
L 283.327131 29.088744 
L 283.972354 55.898908 
L 284.318066 61.140362 
L 286.298343 83.209408 
L 286.894049 79.120596 
L 290.530965 87.207953 
L 290.950321 64.55847 
L 291.415519 84.173635 
L 292.345915 73.447439 
L 293.076806 62.073455 
L 293.440498 76.467263 
L 293.741508 64.898957 
L 293.804189 73.145133 
L 293.804189 50.845748 
L 295.218352 63.215389 
L 297.928289 60.732428 
L 298.168489 51.811595 
L 298.191157 85.500063 
L 298.686625 60.866718 
L 299.623255 59.386467 
L 299.78908 67.400445 
L 299.986947 85.508595 
L 300.71433 64.52677 
L 302.169096 65.63343 
L 303.260171 79.042171 
L 304.351246 55.712565 
L 304.632235 63.269413 
L 305.371454 59.461475 
L 306.118638 64.457627 
L 306.614105 78.345002 
L 306.767047 75.90073 
L 307.260779 79.238394 
L 307.988162 70.379878 
L 308.100508 83.475714 
L 308.595975 73.345026 
L 309.586911 58.224222 
L 310.023432 80.920136 
L 310.897695 56.707832 
L 311.568781 74.610156 
L 311.98877 82.545224 
L 312.349421 73.890424 
L 313.079845 59.516772 
L 313.443536 77.386372 
L 313.550651 52.045896 
L 314.046118 73.362053 
L 314.046118 91.760699 
L 314.534611 76.122231 
L 315.140608 70.755905 
L 315.261994 75.074952 
L 316.716761 59.925485 
L 317.444144 65.859112 
L 317.514391 84.286341 
L 317.807835 53.440293 
L 317.931795 54.819323 
L 318.171527 84.380077 
L 319.000794 45.533001 
L 319.000794 84.119837 
L 319.989985 69.151094 
L 321.08106 76.770185 
L 321.808443 86.437536 
L 322.964534 79.30274 
L 323.514168 82.18544 
L 323.626901 60.071109 
L 323.990593 75.682392 
L 324.444564 64.225491 
L 325.081668 64.548811 
L 325.37496 79.294438 
L 325.937339 98.642358 
L 326.432807 48.751506 
L 326.770553 110.849344 
L 327.627509 79.820587 
L 327.9912 74.892289 
L 328.631344 56.183304 
L 328.631344 80.072138 
L 329.096542 73.950678 
L 329.096542 71.004802 
L 330.17335 56.018483 
L 330.396547 82.444945 
L 330.900733 87.129503 
L 331.264425 74.4524 
L 331.628116 91.140601 
L 331.991808 64.742578 
L 332.3555 57.122292 
L 332.378417 64.949747 
L 332.719191 73.519439 
L 333.810266 75.923231 
L 334.537649 57.992018 
L 334.855755 62.43759 
L 334.855755 74.3811 
L 335.144114 60.305156 
L 335.609312 60.051709 
L 335.992416 55.72476 
L 335.992416 62.954647 
L 337.82856 78.425519 
L 338.400498 58.750882 
L 338.400498 45.11037 
L 339.796092 60.189502 
L 339.81043 66.269714 
L 340.26129 71.973552 
L 341.084098 91.515884 
L 341.296833 49.464076 
L 341.44779 71.78408 
L 341.44779 71.443439 
L 342.538865 71.877128 
L 342.587279 63.628442 
L 343.629939 57.36777 
L 343.774171 71.991657 
L 343.774171 58.074654 
L 344.269638 70.495493 
L 344.721014 70.665121 
L 345.378466 82.657731 
L 345.843664 87.06475 
L 346.746976 41.360323 
L 346.903164 82.57842 
L 347.242443 53.510821 
L 347.630547 76.068757 
L 347.704455 47.369816 
L 348.63485 63.854057 
L 348.721622 59.832463 
L 349.085313 68.46507 
L 350.710716 73.62526 
L 351.631155 71.765015 
L 352.72223 80.57982 
L 354.176996 62.190239 
L 355.169924 44.972883 
L 356.078015 61.171108 
L 356.656326 53.945849 
L 357.45022 93.93524 
L 357.647262 56.198478 
L 357.938807 69.800652 
L 358.638197 53.291891 
L 358.904987 70.653694 
L 359.268678 71.395506 
L 359.63237 60.980337 
L 359.996062 59.633472 
L 360.124599 62.967368 
L 360.359753 73.764581 
L 360.723445 68.123061 
L 362.590785 84.390884 
L 363.097404 73.450042 
L 363.592872 74.76071 
L 365.381972 89.265605 
L 365.574742 82.130392 
L 366.178819 70.822457 
L 366.312367 91.449972 
L 367.997277 60.990109 
L 368.05208 87.636218 
L 368.547547 88.861589 
L 369.538482 58.051929 
L 369.568752 53.477929 
L 370.03395 59.089299 
L 370.964346 79.434885 
L 371.270501 64.427306 
L 371.894741 83.347791 
L 372.01582 61.209672 
L 372.725268 64.063034 
L 373.502223 72.994025 
L 374.22073 77.896397 
L 374.543726 57.755567 
L 375.271109 77.209011 
L 375.616324 79.355438 
L 375.634801 69.844506 
L 375.634801 72.005062 
L 376.362184 66.628325 
L 376.362184 80.906702 
L 376.475028 88.108081 
L 377.81695 82.789424 
L 377.961431 54.763095 
L 378.908025 78.800283 
L 379.635408 63.404536 
L 380.362792 56.022466 
L 380.438768 81.154365 
L 380.7335 65.861413 
L 381.925171 61.959572 
L 382.18125 57.366871 
L 383.059489 63.821024 
L 383.411573 80.51608 
L 383.636016 57.507873 
L 384.363399 59.180628 
L 384.402508 78.840604 
L 385.393444 84.596411 
L 386.384379 56.470634 
L 387.246269 77.385748 
L 387.375314 88.461616 
L 390.037456 50.588527 
L 390.348119 77.273617 
L 390.502654 79.676412 
L 390.546156 74.313502 
L 391.27354 74.473744 
L 392.364614 73.138406 
L 392.828643 67.429289 
L 394.224236 78.029962 
L 395.302794 77.152151 
L 396.085028 69.690911 
L 397.015423 68.474776 
L 397.015423 72.274101 
L 397.015423 62.730778 
L 397.092605 64.756981 
L 397.945819 75.933524 
L 399.341412 65.956817 
L 400.271808 54.942539 
L 402.911671 80.114477 
L 404.716677 70.936052 
L 405.212145 42.595422 
L 405.854182 70.942558 
L 408.180171 59.937367 
L 409.575764 68.303015 
L 410.971358 71.75031 
L 411.157755 76.519619 
L 411.653223 54.024791 
L 412.003961 56.515388 
L 412.731344 81.577249 
L 412.832149 44.166071 
L 413.095036 79.256552 
L 414.69294 77.559903 
L 416.088534 63.595817 
L 417.459335 79.415511 
L 418.186718 69.994651 
L 420.740512 60.826874 
L 421.562574 77.708651 
L 422.551018 80.513093 
L 422.553509 76.346205 
L 423.048976 77.387429 
L 423.066501 67.716337 
L 424.005784 68.638422 
L 425.096859 63.418109 
L 425.460551 64.369242 
L 428.499119 76.725339 
L 429.114072 81.017945 
L 429.461158 78.509284 
L 430.552233 63.988761 
L 434.696446 70.499217 
L 434.916532 68.427061 
L 437.826065 58.56503 
L 438.189757 61.802643 
L 438.418029 74.398404 
L 438.553448 72.298024 
L 440.27882 75.131701 
L 440.39034 65.251029 
L 443.363145 64.390764 
L 444.008822 66.535116 
L 444.849548 89.346457 
L 445.395996 72.981669 
L 446.554664 83.53988 
L 447.282047 72.694877 
L 448.187183 77.828728 
L 451.443568 71.516532 
L 451.443568 56.718631 
L 453.304359 77.918429 
L 453.464804 61.346805 
L 454.699952 61.555613 
L 454.699952 67.837667 
L 457.465412 66.609779 
L 460.374945 77.073324 
L 461.212722 61.605409 
L 463.073513 56.709373 
L 463.181847 65.72633 
L 463.677314 84.167991 
L 466.154652 70.236775 
L 467.260293 76.698381 
L 470.516678 64.207358 
L 471.649384 68.533957 
L 472.377469 73.993305 
L 472.59573 79.105062 
L 473.104151 64.692145 
L 476.099052 77.288345 
L 480.285832 78.960685 
L 481.216228 68.329874 
L 482.146623 74.74987 
L 482.146623 70.393769 
L 483.651207 72.31053 
L 484.472612 56.912127 
L 489.106581 69.225782 
L 491.915778 70.15961 
L 493.834572 65.354956 
L 494.561956 65.20229 
L 497.963349 66.138706 
L 498.428547 68.838997 
L 498.893745 64.200314 
L 500.289338 65.181499 
L 503.314717 56.699667 
L 504.305652 70.715525 
L 505.109012 70.12083 
L 505.296587 76.260589 
L 508.197701 86.542328 
L 508.745928 68.457026 
L 510.52369 67.474758 
L 511.291769 71.63033 
L 514.71047 73.566061 
L 515.175668 73.622397 
L 516.106064 65.483182 
L 518.178743 82.32482 
L 520.292844 71.884082 
L 521.111443 71.374915 
L 524.479625 67.621448 
L 528.201207 69.333791 
L 529.596801 65.748929 
L 532.022191 72.803483 
L 532.749574 67.905416 
L 536.022799 70.181877 
L 536.574768 65.543933 
L 537.477565 69.188581 
L 539.296023 71.472004 
L 540.387098 75.402581 
L 541.114481 71.30606 
L 541.841864 72.622758 
L 542.205556 66.285644 
L 542.569247 69.608094 
L 544.017933 68.567593 
L 545.115089 70.833231 
L 545.413526 67.937585 
L 548.388313 70.376933 
L 549.479388 74.420015 
L 551.870536 66.825599 
L 553.356938 70.549923 
L 554.934762 73.010693 
L 554.934762 69.261467 
L 555.298454 72.482399 
L 557.116912 69.292381 
L 559.662753 71.73743 
L 559.834659 65.662866 
L 560.299856 68.095951 
L 563.299669 70.647273 
L 563.556241 78.637989 
L 564.752692 75.139049 
L 564.951835 73.56083 
L 565.481819 74.420884 
L 569.707367 70.845241 
L 569.707367 77.465552 
L 570.209809 69.212983 
L 570.937193 70.817013 
L 574.574109 71.525981 
L 575.15751 71.919167 
L 576.643913 73.412635 
L 581.484249 73.917308 
L 581.484249 69.934919 
L 581.598588 75.655193 
L 581.847941 74.426909 
L 584.024945 77.702201 
L 584.393782 70.92328 
L 586.939623 71.47084 
L 589.121773 70.474297 
L 589.526068 75.974712 
L 589.526068 63.651382 
L 594.213455 70.196088 
L 594.577147 72.035848 
L 595.30453 74.120538 
L 596.958081 65.999925 
L 596.958081 70.503982 
L 597.850371 71.739002 
L 600.759904 68.710213 
L 603.669437 71.125276 
L 603.669437 72.075933 
L 607.306353 68.671009 
L 609.852194 70.465195 
L 614.262803 68.96089 
L 617.126027 71.301806 
L 622.636364 71.852432 
L 622.636364 71.852432 
" style="fill:none;stroke:#1f77b4;stroke-linecap:square;stroke-width:1.5;"/>
   </g>
   <g id="patch_3">
    <path d="M 90 126 
L 90 17.28 
" style="fill:none;stroke:#000000;stroke-linecap:square;stroke-linejoin:miter;stroke-width:0.8;"/>
   </g>
   <g id="patch_4">
    <path d="M 648 126 
L 648 17.28 
" style="fill:none;stroke:#000000;stroke-linecap:square;stroke-linejoin:miter;stroke-width:0.8;"/>
   </g>
   <g id="patch_5">
    <path d="M 90 126 
L 648 126 
" style="fill:none;stroke:#000000;stroke-linecap:square;stroke-linejoin:miter;stroke-width:0.8;"/>
   </g>
   <g id="patch_6">
    <path d="M 90 17.28 
L 648 17.28 
" style="fill:none;stroke:#000000;stroke-linecap:square;stroke-linejoin:miter;stroke-width:0.8;"/>
   </g>
  </g>
  <g id="text_16">
   <text style="font-family:DejaVu Sans;font-size:12px;font-style:normal;font-weight:normal;text-anchor:middle;" transform="rotate(-0, 360, 11.998125)" x="360" y="11.998125">10-Folds Cross-Validation</text>
  </g>
 </g>
 <defs>
  <clipPath id="p567d044824">
   <rect height="108.72" width="558" x="90" y="17.28"/>
  </clipPath>
 </defs>
</svg>
